<svg xmlns="http://www.w3.org/2000/svg">
<defs>
<font id="UTMGod'sWordBoldItalic" horiz-adv-x="1202" >
  <font-face 
    font-family="UTM God's Word"
    font-weight="700"
    font-style="italic"
    font-stretch="normal"
    units-per-em="2048"
    panose-1="2 4 6 3 5 5 6 2 2 4"
    ascent="1638"
    descent="-410"
    x-height="981"
    cap-height="1423"
    bbox="-313 -471 4983 2227"
    underline-thickness="109"
    underline-position="-143"
    unicode-range="U+0020-2026"
  />
<missing-glyph horiz-adv-x="5082" 
d="M3379 2018h10q38 -10 38 -51q0 -11 -33 -55h-28q0 23 28 52l2 10q-5 12 -10 14h-9q-8 0 -10 -18h-31q7 48 43 48zM2036 1989l29 -30q0 -16 -41 -29h-19l-59 12l-11 -12l-29 25q12 28 43 28h12l42 -11h2q11 0 31 17zM471 1955h144v-59h-95v-74h90v-57h-90v-126l-5 -5h-49
v315zM1165 1955h43l6 -6v-75h30v-52h-30v-183l-6 -5h-50v188h-25v52h25v75zM1634 1955h43l4 -6v-91h2q23 23 55 23h2q59 0 84 -69l2 -38v-140h-52v113q0 78 -43 78h-7q-43 0 -43 -84v-107h-51v315zM2218 1955h49l5 -6v-216q11 -50 46 -50q44 7 44 58v208l5 6h50v-211
q0 -83 -67 -110q-14 -8 -35 -8q-48 0 -83 54q-14 24 -14 55v220zM2456 1955h159v-59h-56v-262h-53v262h-56v53zM2643 1955h71q8 -4 84 -246h2l81 246h73v-321h-54v237h-3l-74 -237h-44q-5 0 -58 178l-20 59h-2v-237h-56v321zM3792 1955h51v-321h-45l-5 5v11l3 1l-3 14
q-29 -39 -78 -39q-68 0 -101 89l-5 38v3q0 92 92 122l23 3q36 0 65 -31h3v105zM2074 1903h36l5 -5v-48h-46v-216h-48v23q-24 -31 -60 -31q-89 14 -89 95v153h51v-102q0 -78 26 -84l18 -5h6q26 0 40 35l3 26v130h53v24zM3505 1903v-53h-31v-216h-47v25h-2q-16 -33 -58 -33
q-69 0 -87 77l-3 28v143h53v-118q0 -49 19 -66l21 -7h9q42 0 42 67v124h28q3 0 3 27l3 2h50zM764 1881q69 0 104 -75q9 -17 12 -53q0 -86 -91 -124l-32 -3q-64 0 -102 71q-12 23 -12 51v10q0 92 102 123h19zM1019 1881h3q75 0 84 -98v-149h-52v116q0 75 -42 75h-5
q-44 0 -44 -75v-116h-53v240h46v-21q31 28 63 28zM1478 1881h7q73 0 106 -87h-60q-17 31 -43 31h-17q-54 -14 -54 -60l-2 -15q12 -67 61 -67h9q23 0 48 26h40l2 3h3l2 -3l2 3l3 -3l1 3l3 -6q-33 -80 -111 -80q-77 0 -111 92l-4 35v3q0 83 77 118q16 7 38 7zM3167 1881h2

<glyph glyph-name=".notdef" horiz-adv-x="5082" 
d="M3379 2018h10q38 -10 38 -51q0 -11 -33 -55h-28q0 23 28 52l2 10q-5 12 -10 14h-9q-8 0 -10 -18h-31q7 48 43 48zM2036 1989l29 -30q0 -16 -41 -29h-19l-59 12l-11 -12l-29 25q12 28 43 28h12l42 -11h2q11 0 31 17zM471 1955h144v-59h-95v-74h90v-57h-90v-126l-5 -5h-49
v315zM1165 1955h43l6 -6v-75h30v-52h-30v-183l-6 -5h-50v188h-25v52h25v75zM1634 1955h43l4 -6v-91h2q23 23 55 23h2q59 0 84 -69l2 -38v-140h-52v113q0 78 -43 78h-7q-43 0 -43 -84v-107h-51v315zM2218 1955h49l5 -6v-216q11 -50 46 -50q44 7 44 58v208l5 6h50v-211
q0 -83 -67 -110q-14 -8 -35 -8q-48 0 -83 54q-14 24 -14 55v220zM2456 1955h159v-59h-56v-262h-53v262h-56v53zM2643 1955h71q8 -4 84 -246h2l81 246h73v-321h-54v237h-3l-74 -237h-44q-5 0 -58 178l-20 59h-2v-237h-56v321zM3792 1955h51v-321h-45l-5 5v11l3 1l-3 14
q-29 -39 -78 -39q-68 0 -101 89l-5 38v3q0 92 92 122l23 3q36 0 65 -31h3v105zM2074 1903h36l5 -5v-48h-46v-216h-48v23q-24 -31 -60 -31q-89 14 -89 95v153h51v-102q0 -78 26 -84l18 -5h6q26 0 40 35l3 26v130h53v24zM3505 1903v-53h-31v-216h-47v25h-2q-16 -33 -58 -33
q-69 0 -87 77l-3 28v143h53v-118q0 -49 19 -66l21 -7h9q42 0 42 67v124h28q3 0 3 27l3 2h50zM764 1881q69 0 104 -75q9 -17 12 -53q0 -86 -91 -124l-32 -3q-64 0 -102 71q-12 23 -12 51v10q0 92 102 123h19zM1019 1881h3q75 0 84 -98v-149h-52v116q0 75 -42 75h-5
q-44 0 -44 -75v-116h-53v240h46v-21q31 28 63 28zM1478 1881h7q73 0 106 -87h-60q-17 31 -43 31h-17q-54 -14 -54 -60l-2 -15q12 -67 61 -67h9q23 0 48 26h40l2 3h3l2 -3l2 3l3 -3l1 3l3 -6q-33 -80 -111 -80q-77 0 -111 92l-4 35v3q0 83 77 118q16 7 38 7zM3167 1881h2
q49 0 70 -59v-13h-52q0 16 -16 16h-4q-14 0 -19 -13v-13q0 -9 68 -34q31 -18 31 -58q0 -57 -61 -78l-24 -3q-76 12 -76 81h53q0 -19 28 -24h4q19 0 24 23q0 21 -68 42q-35 27 -35 58q0 65 75 75zM4238 1881q56 0 78 -62q7 -17 7 -63v-122h-52v110q0 81 -41 81h-11
q-34 0 -40 -53v-138h-53v5h-2l2 2v233h48v-21q25 28 64 28zM4469 1881h5q41 0 70 -39v17l-3 3l3 12h47v-204q0 -94 -86 -129l-33 -3h-7q-70 0 -105 78h60q24 -21 45 -22h13q22 0 43 21q16 12 23 50h-3q-33 -39 -74 -39q-58 0 -97 68q-10 18 -14 62q0 86 88 122zM3883 1874
h54v-133q5 -58 40 -58h7q47 0 47 91v100h51v-240h-47l-3 10h3l-3 3v4l3 2v4h-4q0 -23 -58 -31h-3q-59 0 -85 74l-2 83v91zM695 1750q11 -67 64 -67h7q60 13 60 64v15q-14 63 -60 63h-5q-58 0 -66 -75zM3660 1753q13 -70 61 -70h6q58 0 66 73q0 48 -51 69h-23q-37 0 -56 -56z
M4410 1753q9 -70 66 -70h5q60 11 60 70q0 60 -60 72h-14q-57 -16 -57 -61v-11zM3961 1603h52v-56h-52v56zM1062 1390q44 -11 44 -47v-5q0 -16 -32 -58h-28q0 24 30 55v8q0 11 -6 14h-13q-9 -4 -9 -19h-29v6q0 31 33 43zM3377 1329q93 0 139 -97h-61q-37 41 -80 41
q-56 0 -88 -67q-10 -21 -10 -45q0 -77 81 -108l19 -1q36 0 75 39h62q-44 -96 -139 -96q-94 0 -142 110q-10 30 -10 60q0 95 90 149q30 15 64 15zM3695 1329q57 0 103 -46q46 -51 46 -113v-20q0 -86 -91 -141q-34 -14 -63 -14q-91 0 -140 99q-13 32 -13 59v17q0 96 99 147
q30 12 59 12zM2280 1327h2l47 -12h3q11 0 27 12l18 -36q-18 -18 -36 -18h-3l-54 10l-20 -8l-21 36q19 16 37 16zM722 1324h19q118 0 130 -26q25 -25 25 -60q-10 -56 -30 -56v-6q47 -22 47 -64v-18q0 -61 -69 -85l-55 -6h-67v321zM2571 1324h54v-212q5 -60 45 -60q30 0 44 39
l4 29v197l4 7h45l5 -7v-167q0 -114 -41 -129q-24 -26 -64 -26q-56 0 -92 75l-4 52v202zM2828 1324h60q4 0 123 -231h4v231h50l4 -7v-314h-58q-29 48 -126 232h-3v-232h-54v321zM3127 1324h55v-321h-55v321zM3891 1324h8q157 0 176 -39q23 -12 47 -74l4 -35v-11l4 -2
q0 -91 -84 -145q-35 -15 -100 -15h-55v321zM4176 1324h153v-59h-103v-74h101v-55h-101v-72l4 -5h99v-56h-157v314zM3593 1168v-9q0 -75 79 -106l20 -1q68 0 97 84l3 20v14q0 60 -61 92q-12 8 -39 11q-67 0 -97 -82zM776 1265v-65h9q54 0 54 27l4 14q-11 24 -30 24h-37z
M3944 1265v-201l2 -3v-2q106 0 124 75l2 14v28q0 33 -33 67q-25 22 -78 22h-17zM1050 1250h4q39 0 72 -39v32h49v-240h-49v32q-36 -40 -80 -40q-76 0 -102 96l-6 34q0 87 87 122zM1324 1250h4q74 0 84 -100v-147h-52v125q0 65 -42 65h-10q-35 0 -39 -59v-131h-53v240h47v-21
q29 28 61 28zM1556 1250h5q45 0 72 -39v32h47v-214q0 -93 -105 -123h-16q-75 0 -109 80h60q26 -25 44 -25h14q52 0 65 76q-34 -42 -77 -42q-61 0 -102 80l-7 43v16q0 76 86 113zM1927 1250h2q44 0 63 -36h2q31 36 69 36h4q57 0 79 -53q9 -25 9 -44v-150h-53v135q0 43 -23 53
l-12 2h-15q-32 0 -36 -63v-127h-53v133q0 57 -43 57h-8q-33 0 -36 -55v-135h-55v240h51v-21h2q5 24 53 28zM2301 1250q47 0 76 -41v34h47v-240h-47v32q-37 -40 -79 -40q-75 0 -103 90l-6 40q0 88 86 122zM993 1112q0 -48 61 -60h4q46 0 63 45l3 15v22q-12 59 -57 59h-15
q-41 0 -59 -55v-26zM1499 1122q0 -46 43 -66l19 -4h4q48 0 65 55v23q-12 63 -59 63h-12q-50 0 -60 -71zM2243 1125v-13q16 -60 58 -60h14q58 12 58 63v10q0 44 -36 64l-19 4h-10q-65 -7 -65 -68zM776 1144v-80q0 -5 8 -5q76 0 76 44q0 33 -47 41h-37zM2991 757l24 -28
l-51 -54q-19 12 -28 26zM1537 730l85 -52q0 -15 -21 -41l-88 52q19 40 24 41zM2873 698h39l55 -59h-54l-21 25l-23 -25h-55q55 59 59 59zM3451 698h40l57 -59h-55l-24 25h-1q0 -4 -19 -25h-55zM627 689h52q9 -3 48 -133l34 -107q9 7 34 98l49 142h54v-2l-113 -318h-44z
M1169 689h51v-52h-51v52zM1365 689h47l5 -4v-316h-52v320zM2337 689h45l3 -4v-76h32v-51h-32v-189h-53v189h-26v51h26v76zM2445 689h53v-95h2q23 23 54 23h3q57 0 82 -69l3 -38v-141h-53v113q0 79 -39 79h-10q-42 0 -42 -85v-107h-53v320zM2686 689h53v-52h-53v52zM3053 689
h44l7 -4v-76h29v-51h-29v-189h-55v189h-27v51h27v76zM3260 689h53v-320h-53v320zM3990 689h52v-320h-52v320zM4352 689h51v-52h-51v52zM1568 617h5q84 0 110 -100l3 -23v-10q0 -81 -85 -117l-36 -5q-76 0 -111 94l-4 32q0 94 93 127zM1826 617h4q53 0 78 -59q8 -24 8 -80
v-109h-55v143q-7 49 -37 49h-10q-38 0 -42 -55v-137h-55v240h49v-20q27 28 60 28zM2063 617h4q46 0 63 -39h4v31h49v-201q0 -100 -89 -132l-29 -3h-5q-74 0 -107 79h52l38 -20l15 -3h14q50 0 62 71q-34 -38 -74 -38q-63 0 -99 74q-12 22 -12 58q0 83 87 121zM2890 617h2
q82 0 112 -102l2 -24l-2 -26h-174q16 -44 45 -44l15 -3q29 0 50 21h56v-3q-34 -74 -108 -74q-78 0 -113 94l-1 28v8q0 47 33 86q35 39 83 39zM3457 617h5q42 0 71 -39h2v31h47v-240h-47v31h-2q-35 -38 -78 -38q-71 0 -101 87l-5 35v13q0 84 84 118zM3742 617h7
q89 0 108 -125l-2 -1v-15q0 -64 -66 -104q-21 -10 -47 -10q-34 0 -65 31v-96l-5 -5h-50v317h50v-28q31 36 70 36zM4185 617q45 0 76 -39v31h50v-240h-50v31q-35 -38 -78 -38q-92 0 -108 129q0 82 73 118q15 8 37 8zM930 609h49v-133q4 -58 43 -58h5q45 0 45 85v106h52v-240
h-48v24h-4q0 -23 -57 -31h-3q-56 0 -82 66q-4 35 -4 97v79zM1169 609h51v-240h-51v240zM2686 609h53v-240h-53v240zM4352 609h51v-240h-51v240zM1504 497v-15q13 -64 59 -64h5q59 0 66 74q-13 69 -59 69h-12q-59 -15 -59 -64zM2003 482q16 -64 60 -64h11q48 0 60 73v1
q-14 69 -60 69h-14q-39 0 -57 -55v-24zM2828 515h123v2q-16 44 -59 44h-7q-36 0 -57 -46zM3401 484q13 -66 61 -66h6q52 0 65 60v13q-10 70 -57 70h-17q-55 -13 -55 -62zM3672 488q12 -70 62 -70h3q51 0 65 58v21q0 42 -49 64h-22q-48 0 -59 -70v-3zM4130 482q9 -64 66 -64
q43 0 61 47l2 13v16q0 54 -53 67h-18q-42 0 -58 -58v-21zM3445 335h51v-52h-51v52zM4172 335h51v-52h-51v52zM2755 151h5q35 0 43 -50v-1q0 -15 -24 -39l-10 -17h-28q0 24 28 54l3 2v1q-3 19 -9 19h-11q-7 0 -8 -19h-31q7 50 42 50zM1559 134l52 -59l-26 -18l-52 51zM354 98
h5q75 -47 86 -58l-21 -36q-89 47 -89 57zM3519 98l87 -56l-18 -38q-11 0 -92 53q15 35 23 41zM4617 95l19 -41l-92 -50l-21 38l94 56v-3zM1214 73h52v-19l4 -5h14v-35h-14l-4 -5v-272h-47v31q-34 -40 -82 -40q-72 0 -103 103l-3 25q0 100 102 128h15q32 0 66 -33v58l-6 5
h-43v35h49v24zM1492 65h41l56 -60h-53l-24 27l-23 -27h-53zM2663 65h33q12 0 64 -60h-55l-23 27q-19 -21 -19 -27h-59v4zM49 57h161v-58h-56v-262h-50l-4 4v240l2 3v2l-2 2l2 2l-2 2l2 3l-2 4h-55v52zM705 57h47v-71l2 -2l-2 -3v-3l2 -1l-2 -4v-3l2 -2v-2l-2 -3l2 -2h3
q17 23 52 23h2q54 0 78 -57q7 -17 7 -41v-149h-52v124q0 66 -40 66h-9q-43 0 -43 -84v-106h-53v314zM1308 57h47l5 -6v-47h-52v53zM2003 57h53v-193l70 113h63l-79 -116l91 -122v-2h-71q-10 21 -74 112v-112h-53v320zM2289 57v-96q25 23 54 23q58 0 81 -55q10 -19 10 -75
v-117h-54v129q0 61 -42 61h-11q-31 0 -38 -53v-137h-52v307l-1 2v3l1 2l-1 3l1 3h52zM2479 57h51v-53h-51v53zM3174 57h52v-106q27 33 68 33h3q76 0 107 -91l4 -37q0 -74 -64 -117q-31 -11 -50 -11q-41 0 -72 40v-31h-48v320zM4311 57h52v-96h2q23 23 55 23h3q60 0 82 -73
l2 -39v-135h-52v108q0 80 -32 80l-10 2h-13q-37 0 -37 -78v-112h-52v320zM331 -16h3v-57h-5q-42 0 -42 -55v-135h-54v240h48v-21q19 28 50 28zM568 -16q72 0 87 -85v-162h-51v132q-7 58 -41 58h-7q-45 0 -45 -82v-108h-52v240h50v-21q25 28 59 28zM1516 -16q73 0 106 -91
l5 -39q-2 -23 -7 -23h-170q17 -47 62 -47q25 0 49 21h57q-33 -77 -108 -77q-83 0 -115 103v35q0 80 90 115zM2679 -16h5q78 0 108 -95l3 -25v-21l-3 -12h-171q18 -47 53 -47h12q21 0 42 21h60q-35 -77 -106 -77q-84 0 -116 99l-2 29q0 91 91 125zM2940 -16h3q54 0 79 -59
q7 -24 7 -80v-108h-55v135q0 47 -34 55h-12q-38 0 -43 -55v-135h-55v240h51v-21q25 28 59 28zM3537 -16h6q40 0 71 -39h2v32h47v-240h-47v31h-2q-35 -40 -79 -40q-71 0 -102 88l-4 36v12q0 80 78 114q11 6 30 6zM3813 -16h3q63 0 83 -77l3 -82v-88h-54v135q0 47 -38 55h-10
q-38 0 -42 -50v-140h-55v240h50v-21q26 28 60 28zM4167 -16h1q75 0 106 -91l3 -39q0 -86 -84 -123l-26 -3q-41 0 -68 33v-104h-53v320h48v-29q30 36 73 36zM4753 -16h6q33 0 63 -36q27 36 69 36h7q56 0 80 -64l5 -51v-132h-52v119q0 71 -40 71h-7q-35 0 -41 -48v-138l-5 -4
h-49v137q0 41 -30 53h-18q-40 0 -40 -75v-115h-52v240h48v-21q22 28 56 28zM362 -23h49l5 -7v-229l-5 -4h-49v240zM1308 -23h52v-240h-52v240zM1662 -23h53v-134q4 -59 43 -59h4q44 0 44 80v113h53v-240h-47v23h-6q-11 -32 -59 -32q-52 0 -80 62q-5 11 -5 33v154zM2479 -23
h51v-240h-51v240zM4553 -23h51v-240h-51v240zM1086 -144q0 -52 51 -72h12q54 0 67 65v10q0 51 -55 68h-16q-39 0 -59 -55v-16zM1450 -119h123q-18 46 -54 46h-7q-43 0 -62 -43v-3zM2621 -119h123q-21 46 -55 46h-7q-47 0 -61 -46zM3223 -134v-10q10 -72 61 -72h5q65 9 65 70
v5q0 44 -39 63l-18 5h-14q-60 -13 -60 -61zM3480 -148q15 -68 63 -68h11q42 0 60 59v13q-8 71 -57 71h-17q-47 0 -60 -71v-4zM4096 -134v-21q0 -46 60 -61h8q51 0 62 75q-13 68 -59 68h-14q-57 -17 -57 -61z" />
    <glyph glyph-name=".null" horiz-adv-x="0" 
 />
    <glyph glyph-name="nonmarkingreturn" horiz-adv-x="576" 
 />
    <glyph glyph-name="space" unicode=" " horiz-adv-x="436" 
 />
    <glyph glyph-name="exclam" unicode="!" horiz-adv-x="917" 
d="M903 1423q-33 -43 -66 -145l-206 -653q-21 -66 -21 -97q0 -8 6 -49h-272q31 53 41 158l59 623q6 63 6 86q0 36 -14 77h467zM631 207q0 -101 -59.5 -164t-153.5 -63q-89 0 -141 53t-52 143q0 92 61.5 150.5t159.5 58.5q84 0 134.5 -48t50.5 -130z" />
    <glyph glyph-name="quotedbl" unicode="&#x22;" horiz-adv-x="1359" 
d="M1220 1438l-172 -570h-184l71 570h285zM851 1438l-174 -570h-184l72 570h286z" />
    <glyph glyph-name="numbersign" unicode="#" horiz-adv-x="1359" 
d="M1409 1010l-58 -158h-223l-100 -272h223l-59 -158h-222l-155 -422h-250l153 422h-188l-156 -422h-249l153 422h-219l57 158h219l101 272h-219l57 158h221l150 413h252l-152 -413h191l151 413h252l-154 -413h224zM876 852h-188l-101 -272h191z" />
    <glyph glyph-name="dollar" unicode="$" horiz-adv-x="1081" 
d="M1053 1337l-17 -262q-102 84 -168.5 115t-148.5 31q-152 0 -152 -113q0 -57 37 -100t187 -162q120 -96 165 -173t45 -186q0 -268 -256 -401q-96 -49 -243 -61l-51 -242h-134l54 246q-181 16 -293 71l-35 273q225 -168 391 -168q90 0 143.5 43t53.5 117q0 59 -37 107
t-170 159q-125 104 -173 182t-48 178q0 183 132 290.5t367 119.5l54 239h131l-53 -243q122 -17 219 -60z" />
    <glyph glyph-name="percent" unicode="%" horiz-adv-x="1517" 
d="M816 1184q0 -172 -105.5 -284t-267.5 -112q-127 0 -200.5 69t-73.5 187q0 201 147 318q97 76 242 76q258 0 258 -254zM1402 1423l-995 -1423h-187l996 1423h186zM1447 381q0 -172 -105.5 -283.5t-267.5 -111.5q-127 0 -200.5 68.5t-73.5 189.5q0 198 147 315
q96 76 242 76q258 0 258 -254zM597 1202q0 92 -72 92q-53 0 -94 -78.5t-41 -185.5q0 -94 76 -94q57 0 94 75.5t37 190.5zM1228 399q0 95 -72 95q-53 0 -94 -80t-41 -183q0 -98 76 -98q55 0 93 77t38 189z" />
    <glyph glyph-name="ampersand" unicode="&#x26;" horiz-adv-x="1572" 
d="M1740 -53q-151 -137 -332 -137q-176 0 -319 161q-33 39 -139 168q-113 -98 -205 -136t-217 -38q-209 0 -334 109.5t-125 292.5q0 168 99.5 279.5t326.5 195.5q-78 129 -78 233q0 170 130 273.5t345 103.5q187 0 290.5 -77t103.5 -216q0 -170 -130 -262q-63 -45 -188 -100
q162 -267 408 -594q112 -150 186 -201t178 -55zM1001 1145q0 59 -37 98t-92 39q-47 0 -78 -27.5t-31 -70.5q0 -72 86 -187q152 43 152 148zM849 279q-153 215 -231 370q-170 -51 -170 -198q0 -97 68.5 -162.5t168.5 -65.5q84 0 164 56z" />
    <glyph glyph-name="quotesingle" unicode="'" horiz-adv-x="907" 
d="M810 1438l-174 -570h-184l72 570h286z" />
    <glyph glyph-name="parenleft" unicode="(" horiz-adv-x="690" 
d="M880 1460q-191 -186 -303 -399q-180 -344 -180 -723q0 -287 108 -606h-162q-227 405 -227 729q0 375 279 717q124 153 292 282h193z" />
    <glyph glyph-name="parenright" unicode=")" horiz-adv-x="690" 
d="M629 731q0 -369 -279 -717q-131 -164 -290 -282h-195q190 182 303 397q180 344 180 723q0 270 -108 608h164q225 -411 225 -729z" />
    <glyph glyph-name="asterisk" unicode="*" horiz-adv-x="1359" 
d="M1206 1104l-145 26l-146 -26l68 -105l113 -81l-228 -152l-14 147l-60 117l-112 -119l-72 -133l-166 168l144 70l110 94l-133 23l-131 -21l127 254l92 -88l111 -55l22 139l-26 125h264l-72 -113l-45 -151l137 59l105 80z" />
    <glyph glyph-name="plus" unicode="+" horiz-adv-x="1359" 
d="M1232 612h-399v-385h-199v385h-399v199h399v385h199v-385h399v-199z" />
    <glyph glyph-name="comma" unicode="," horiz-adv-x="657" 
d="M465 213q0 -139 -100 -274.5t-250 -196.5l-139 27q211 73 262 213q-174 24 -174 190q0 96 59.5 156.5t155.5 60.5q84 0 135 -48t51 -128z" />
    <glyph glyph-name="hyphen" unicode="-" horiz-adv-x="747" 
d="M723 635l-186 -244h-99q-178 0 -245.5 -8t-149.5 -39l190 244h195q190 0 295 47z" />
    <glyph glyph-name="hyphen" unicode="&#x2010;" horiz-adv-x="747" 
d="M723 635l-186 -244h-99q-178 0 -245.5 -8t-149.5 -39l190 244h195q190 0 295 47z" />
    <glyph glyph-name="period" unicode="." horiz-adv-x="663" 
d="M475 207q0 -101 -59.5 -164t-153.5 -63q-89 0 -141 53t-52 143q0 92 61.5 150.5t159.5 58.5q84 0 134.5 -48t50.5 -130z" />
    <glyph glyph-name="slash" unicode="/" horiz-adv-x="1210" 
d="M1303 1475l-1090 -1610h-217l1090 1610h217z" />
    <glyph glyph-name="zero" unicode="0" horiz-adv-x="1325" 
d="M1261 535q0 -267 -171 -416.5t-474 -149.5q-221 0 -363 101q-180 127 -180 370q0 262 177 417t476 155q256 0 406 -138q129 -118 129 -339zM868 598q0 221 -154 221q-106 0 -177 -126t-71 -312q0 -219 156 -219q106 0 176 124t70 312z" />
    <glyph glyph-name="one" unicode="1" horiz-adv-x="806" 
d="M780 1090l-182 -818q-27 -118 -27 -155q0 -56 68 -117h-590q80 47 105.5 92t56.5 180l84 383l-232 78q248 43 399.5 119t317.5 238z" />
    <glyph glyph-name="two" unicode="2" horiz-adv-x="1232" 
d="M1147 266l-143 -266h-1053q131 88 414 293q196 143 263.5 216t67.5 142q0 56 -48 93.5t-117 37.5q-148 0 -369 -116l121 270q178 76 377 76q200 0 320 -94.5t120 -249.5q0 -133 -93 -236.5t-335 -241.5q190 5 279.5 18t195.5 58z" />
    <glyph glyph-name="three" unicode="3" horiz-adv-x="1204" 
d="M1108 668q0 -181 -147 -269q-93 -55 -252 -65q123 -29 182 -76q115 -90 115 -258q0 -215 -184.5 -341t-499.5 -126q-197 0 -363 55l-45 248q154 -110 340 -110q158 0 255 78.5t97 205.5q0 238 -323 238q-39 0 -107 -6l47 204q82 -16 152 -16q157 0 245.5 57.5t88.5 157.5
q0 80 -62.5 127t-167.5 47q-151 0 -309 -104l127 264q117 33 297 33q514 0 514 -344z" />
    <glyph glyph-name="four" unicode="4" horiz-adv-x="1363" 
d="M1323 262l-135 -262h-207l-98 -436h-352l96 436h-680l793 981h475q-21 -45 -31 -82q-16 -55 -47 -192l-115 -517h31q137 0 270 72zM801 784l-467 -594h336z" />
    <glyph glyph-name="five" unicode="5" horiz-adv-x="1204" 
d="M1147 1024l-127 -408h-622l-47 -204q102 22 229 22q221 0 345 -97t124 -271q0 -218 -148 -365q-167 -168 -497 -168q-209 0 -400 80l-61 274q129 -84 214 -115.5t183 -31.5q138 0 224 74.5t86 189.5t-89.5 183.5t-238.5 68.5q-100 0 -201 -31l172 770q78 -10 187 -10h352
q174 0 315 39z" />
    <glyph glyph-name="six" unicode="6" horiz-adv-x="1355" 
d="M1288 1452l-80 -164q-229 0 -403 -139q-144 -115 -230 -313.5t-86 -411.5q0 -252 166 -252q94 0 156.5 107.5t62.5 267.5q0 196 -170 196q-43 0 -102 -24l100 164q76 28 176 28q183 0 289.5 -105.5t106.5 -287.5q0 -237 -176.5 -387.5t-456.5 -150.5q-256 0 -403.5 133
t-147.5 364q0 213 114.5 413t313.5 337q315 217 770 225z" />
    <glyph glyph-name="seven" unicode="7" horiz-adv-x="1208" 
d="M1311 985l-797 -1237q-43 -67 -43 -100q0 -29 37 -86h-557l797 1208q-162 12 -236 12q-250 0 -375 -82l146 285h1028z" />
    <glyph glyph-name="eight" unicode="8" horiz-adv-x="1378" 
d="M1349 1114q0 -151 -100 -248q-60 -57 -193 -94q207 -135 207 -348q0 -217 -167 -335t-472 -118q-266 0 -411.5 100.5t-145.5 282.5q0 269 342 398q-119 118 -119 276q0 201 152.5 312.5t425.5 111.5q227 0 354 -89t127 -249zM1052 1067q0 86 -50 139.5t-132 53.5
q-74 0 -120 -42t-46 -110q0 -135 217 -248q131 78 131 207zM849 326q0 55 -32.5 98t-122.5 108q-113 82 -164 113q-166 -82 -166 -235q0 -111 73.5 -177.5t194.5 -66.5q99 0 158 44t59 116z" />
    <glyph glyph-name="nine" unicode="9" horiz-adv-x="1378" 
d="M1286 514q0 -213 -114.5 -412.5t-313.5 -337.5q-315 -215 -770 -225l82 164q231 2 403 141q142 115 228 312.5t86 410.5q0 252 -166 252q-94 0 -156.5 -107.5t-62.5 -265.5q0 -196 172 -196q47 0 102 22l-100 -163q-80 -29 -180 -29q-152 0 -256 82q-138 106 -138 311
q0 238 176.5 388.5t456.5 150.5q258 0 404.5 -133.5t146.5 -364.5z" />
    <glyph glyph-name="colon" unicode=":" horiz-adv-x="663" 
d="M614 829q0 -100 -59.5 -163.5t-153.5 -63.5q-88 0 -140.5 53.5t-52.5 143.5q0 92 61.5 150.5t159.5 58.5q84 0 134.5 -48.5t50.5 -130.5zM475 207q0 -101 -59.5 -164t-153.5 -63q-89 0 -141 53t-52 143q0 92 61.5 150.5t159.5 58.5q84 0 134.5 -48t50.5 -130z" />
    <glyph glyph-name="semicolon" unicode=";" horiz-adv-x="663" 
d="M615 829q0 -100 -59.5 -163.5t-153.5 -63.5q-88 0 -140.5 53.5t-52.5 143.5q0 92 61.5 150.5t160.5 58.5q84 0 134 -48.5t50 -130.5zM465 213q0 -139 -100 -274.5t-250 -196.5l-139 27q211 73 262 213q-174 24 -174 190q0 96 59.5 156.5t155.5 60.5q84 0 135 -48t51 -128
z" />
    <glyph glyph-name="less" unicode="&#x3c;" horiz-adv-x="1359" 
d="M1194 166l-926 455v184l926 452v-215l-695 -329l695 -330v-217z" />
    <glyph glyph-name="equal" unicode="=" horiz-adv-x="1359" 
d="M1232 813h-997v199h997v-199zM1232 414h-997v198h997v-198z" />
    <glyph glyph-name="greater" unicode="&#x3e;" horiz-adv-x="1359" 
d="M1196 621l-926 -455v217l696 330l-696 329v215l926 -452v-184z" />
    <glyph glyph-name="question" unicode="?" horiz-adv-x="1067" 
d="M1136 1110q0 -166 -115 -283q-59 -61 -245 -155q-117 -60 -153 -89.5t-36 -66.5q0 -18 4 -37h-239q0 127 41 190.5t168 143.5q172 107 172 238q0 73 -56.5 122.5t-142.5 49.5q-125 0 -272 -109l102 285q149 53 334 53q209 0 323.5 -89t114.5 -253zM643 207
q0 -101 -59.5 -164t-153.5 -63q-89 0 -141 53t-52 143q0 92 61.5 150.5t159.5 58.5q84 0 134.5 -48t50.5 -130z" />
    <glyph glyph-name="at" unicode="@" horiz-adv-x="1720" 
d="M1734 901q0 -252 -164.5 -417t-416.5 -165q-209 0 -209 156q0 43 24 123l99 322q-33 22 -60 22q-59 0 -104 -63q-105 -148 -105 -301q0 -99 84 -99q11 0 31 6l-96 -143q-41 -14 -84 -14q-107 0 -168.5 60.5t-61.5 166.5q0 115 54.5 227.5t146.5 188.5q137 112 336 112
q37 0 109.5 -9t109.5 -9q66 0 142 33l-150 -488q-23 -73 -23 -102q0 -35 41 -35q89 0 146 72q121 149 121 350q0 178 -144.5 295t-363.5 117q-299 0 -488.5 -174.5t-189.5 -448.5q0 -260 167 -413.5t447 -153.5q262 0 508 186l-41 -192q-221 -140 -502 -140
q-362 0 -575 185.5t-213 500.5q0 349 253 572t646 223q320 0 507 -148.5t187 -402.5z" />
    <glyph glyph-name="A" unicode="A" horiz-adv-x="1396" 
d="M1387 0h-569q92 70 92 123q0 8 -6 61l-4 35l-29 205h-473l-82 -145q-88 -156 -88 -197q0 -29 51 -82h-430q63 41 95 83t134 216l482 825q63 109 63 172q0 76 -69 127h530l213 -1204q18 -102 32.5 -139t57.5 -80zM840 623l-67 469l-265 -469h332z" />
    <glyph glyph-name="B" unicode="B" horiz-adv-x="1347" 
d="M1318 1149q0 -186 -119 -299q-76 -72 -219 -96q287 -31 287 -314q0 -125 -60.5 -229.5t-161.5 -151.5q-84 -39 -173 -49t-363 -10h-549q76 57 108.5 118.5t61.5 194.5l176 799q27 121 27 176q0 53 -58 135h539q242 0 324 -23.5t131 -91t49 -159.5zM916 1114
q0 137 -174 137h-22l-90 -403q45 -4 53 -4q102 0 167.5 75.5t65.5 194.5zM865 446q0 101 -63.5 159.5t-173.5 58.5q-23 0 -39 -5l-99 -450q58 -16 109 -16q121 0 193.5 69.5t72.5 183.5z" />
    <glyph glyph-name="C" unicode="C" horiz-adv-x="1292" 
d="M1327 1395l-35 -301q-117 153 -301 153q-207 0 -344 -187.5t-137 -465.5q0 -197 90 -307.5t252 -110.5q168 0 407 148l-151 -275q-170 -78 -373 -78q-297 0 -468 162t-171 442q0 197 77 376t210 298q229 203 596 203q178 0 348 -57z" />
    <glyph glyph-name="D" unicode="D" horiz-adv-x="1476" 
d="M1494 868q0 -223 -93 -418.5t-257 -310.5q-197 -139 -551 -139h-633q76 57 108.5 117.5t61.5 195.5l176 797q27 121 27 178q0 53 -58 135h621q258 0 397 -92q201 -133 201 -463zM1080 913q0 340 -280 340q-35 0 -76 -10l-229 -1036q71 -21 131 -21q188 0 321 212t133 515
z" />
    <glyph glyph-name="E" unicode="E" horiz-adv-x="1097" 
d="M1109 1423l-70 -321q-26 94 -129 112q-24 7 -190 5l-82 -365h135q115 0 172 18l-72 -327q-14 65 -41.5 81.5t-119.5 16.5h-121l-88 -399q100 -43 235 -43q121 0 192.5 24.5t174.5 102.5l-168 -328h-977q74 57 107.5 118.5t62.5 194.5l176 797q27 121 27 178q0 53 -58 135
h834z" />
    <glyph glyph-name="F" unicode="F" horiz-adv-x="1040" 
d="M1152 1423l-70 -319q-28 96 -151 115q-13 2 -211 0l-84 -379h176q106 0 174 18l-74 -328q-14 66 -41.5 82.5t-119.5 16.5h-162l-70 -316q-27 -120 -27 -178q0 -55 58 -135h-590q76 57 108.5 117.5t61.5 195.5l176 797q27 121 27 178q0 53 -58 135h877z" />
    <glyph glyph-name="G" unicode="G" horiz-adv-x="1443" 
d="M1435 733q-36 -59 -48.5 -95t-39.5 -157l-45 -200q-24 -109 -24 -181q0 -22 8 -55q-209 -74 -502 -74q-328 0 -509 163t-181 460q0 209 91 394.5t253 299.5q229 164 569 164q211 0 396 -61l-43 -318q-125 174 -353 174q-223 0 -361 -174t-138 -455q0 -208 88 -329
t239 -121q25 0 58 6l51 227q35 154 35 205q0 62 -72 127h528z" />
    <glyph glyph-name="H" unicode="H" horiz-adv-x="1521" 
d="M1668 1423q-74 -57 -107.5 -118.5t-62.5 -194.5l-176 -797q-27 -120 -27 -178q0 -57 58 -135h-590q76 57 108.5 118.5t61.5 194.5l74 336h-414l-74 -336q-27 -120 -27 -178q0 -55 58 -135h-590q76 57 108.5 117.5t61.5 195.5l176 797q27 121 27 178q0 53 -58 135h590
q-74 -55 -108.5 -119.5t-61.5 -193.5l-51 -252h410l55 252q27 121 27 178q0 53 -58 135h590z" />
    <glyph glyph-name="I" unicode="I" horiz-adv-x="718" 
d="M865 1423q-74 -55 -106.5 -116.5t-63.5 -196.5l-176 -797q-27 -120 -27 -178q0 -55 58 -135h-590q74 59 107.5 119.5t62.5 193.5l176 797q27 121 27 178q0 53 -58 135h590z" />
    <glyph glyph-name="J" unicode="J" horiz-adv-x="770" 
d="M937 1423q-74 -57 -108 -118.5t-62 -194.5l-197 -891q-55 -252 -82 -334t-72 -147q-125 -180 -411 -180q-74 0 -203 18q160 47 230.5 171t156.5 507l191 856q26 119 26 178q0 53 -57 135h588z" />
    <glyph glyph-name="K" unicode="K" horiz-adv-x="1468" 
d="M1562 1423q-27 -22 -78 -69l-572 -539l88 -162q58 -104 174 -315q158 -289 265 -336q-154 -31 -258 -31q-203 0 -283 78q-29 29 -49 66q-19 30 -113 219l-147 295l-70 -316q-27 -120 -27 -178q0 -55 58 -135h-590q74 59 107.5 119.5t62.5 193.5l176 797q27 121 27 178
q0 53 -58 135h590q-74 -55 -106.5 -116.5t-63.5 -196.5l-65 -291l417 418q82 82 95.5 98.5t13.5 34.5q0 23 -31 53h437z" />
    <glyph glyph-name="L" unicode="L" horiz-adv-x="1091" 
d="M1072 330l-168 -330h-944q74 57 107.5 118.5t62.5 194.5l176 797q27 121 27 178q0 53 -58 135h590q-74 -57 -106.5 -118.5t-63.5 -194.5l-192 -866q86 -43 217 -43q106 0 180 26.5t172 102.5z" />
    <glyph glyph-name="M" unicode="M" horiz-adv-x="1888" 
d="M1942 1423q-76 -65 -101.5 -123.5t-40.5 -187.5l-88 -799q-8 -73 -8 -120q0 -68 14.5 -105t59.5 -88h-586q66 53 94.5 118.5t42.5 194.5l66 596l-537 -938l-43 39q-92 84 -122.5 139.5t-57.5 192.5l-107 569l-176 -614q-37 -129 -37 -176q0 -60 62 -121h-424
q72 47 98.5 86t59.5 150l250 837q59 199 59 234q0 47 -61 116h450q-2 -18 -2 -41q0 -47 35 -235l108 -590l338 582q62 106 115 219l31 65h508z" />
    <glyph glyph-name="N" unicode="N" horiz-adv-x="1460" 
d="M1620 1423q-73 -57 -107 -118.5t-63 -194.5l-215 -973l68 -137q-60 -14 -127 -14q-176 0 -265 79.5t-198 333.5l-238 559l-143 -645q-27 -118 -27 -178q0 -55 58 -135h-418q74 59 107.5 119.5t62.5 193.5l176 797q27 121 27 178q0 68 -62 135h467q21 -80 64 -182
l309 -747l137 616q27 119 27 178q0 55 -58 135h418z" />
    <glyph glyph-name="O" unicode="O" horiz-adv-x="1490" 
d="M1495 879q0 -408 -225.5 -658t-594.5 -250q-274 0 -421.5 148.5t-147.5 427.5q0 192 62.5 370.5t170.5 299.5q211 235 590 235q277 0 430 -156q136 -137 136 -417zM1081 940q0 322 -197 322q-155 0 -264 -252q-100 -232 -100 -527q0 -149 53 -235t143 -86q168 0 273 268
q92 238 92 510z" />
    <glyph glyph-name="P" unicode="P" horiz-adv-x="1253" 
d="M1334 1102q0 -211 -138 -342t-357 -131q-115 0 -224 43q119 6 179 63q120 119 120 338q0 180 -153 180h-35l-207 -940q-27 -120 -27 -178q0 -55 58 -135h-590q76 57 108.5 117.5t61.5 195.5l176 797q27 121 27 178q0 53 -58 135h510q164 0 219 -6q132 -12 209 -59
q121 -74 121 -256z" />
    <glyph glyph-name="Q" unicode="Q" horiz-adv-x="1490" 
d="M1660 -270q-176 -170 -352 -170q-135 0 -261 92t-304 321q-33 -2 -68 -2q-305 0 -450 176q-119 144 -119 404q0 403 233 666q209 235 582 235q285 0 438 -156q136 -137 136 -417q0 -539 -365 -785q227 -368 481 -368q27 0 49 4zM1081 940q0 322 -197 322
q-155 0 -264 -252q-100 -232 -100 -527q0 -149 53 -235t143 -86q168 0 273 268q92 238 92 510z" />
    <glyph glyph-name="R" unicode="R" horiz-adv-x="1386" 
d="M1359 0q-127 -14 -207 -14q-203 0 -287 75q-69 64 -172 328l-104 273l-78 -349q-27 -118 -27 -178q0 -57 58 -135h-582q76 57 108.5 117.5t61.5 195.5l176 797q27 121 27 178q0 53 -58 135h557q263 0 363 -51q65 -33 104 -109.5t39 -166.5q0 -199 -121 -312
q-83 -79 -249 -82l75 -163q127 -277 193 -387q61 -103 123 -152zM923 1092q0 151 -187 151h-18l-109 -485q25 -8 49 -8q115 0 190 97t75 245z" />
    <glyph glyph-name="S" unicode="S" horiz-adv-x="1103" 
d="M1099 1384l-16 -282q-108 92 -181 126t-161 34q-76 0 -122 -34t-46 -91q0 -60 41 -108t201 -175q129 -102 177 -184t48 -199q0 -217 -164 -358.5t-413 -141.5q-236 0 -410 82l-39 293q244 -184 420 -184q98 0 157.5 48t59.5 126q0 65 -39 115.5t-184 171.5
q-133 110 -184.5 194t-51.5 193q0 202 153.5 322t413.5 120q179 0 340 -68z" />
    <glyph glyph-name="T" unicode="T" horiz-adv-x="1173" 
d="M1386 1438l-139 -314q-82 90 -197 90h-121l-198 -901q-27 -120 -27 -178q0 -55 57 -135h-589q73 57 107 118.5t63 194.5l198 895q-69 11 -116 11q-146 0 -281 -78l145 303q68 -21 201 -21h615q186 0 282 15z" />
    <glyph glyph-name="U" unicode="U" horiz-adv-x="1482" 
d="M1630 1423q-74 -55 -107 -116.5t-63 -196.5l-176 -797q-27 -120 -27 -178q0 -57 57 -135h-514l49 135q-102 -96 -185 -130t-214 -34q-158 0 -246 72q-98 80 -98 207q0 57 27 178l151 682q27 121 27 178q0 55 -58 135h590q-73 -55 -106 -116.5t-64 -196.5l-118 -530
q-39 -174 -39 -244q0 -139 153 -139q146 0 207 116q33 62 61 195l134 602q26 121 26 178q0 55 -57 135h590z" />
    <glyph glyph-name="V" unicode="V" horiz-adv-x="1226" 
d="M1460 1423q-8 -14 -72 -125l-753 -1327l-53 31q-162 92 -201 141q-39 58 -70 306l-92 735q-20 157 -88 239h465q-4 -26 -4 -67q0 -90 12 -207l74 -698l401 743q62 115 62 158q0 34 -45 71h364z" />
    <glyph glyph-name="W" unicode="W" horiz-adv-x="2086" 
d="M2289 1423l-135 -237l-698 -1215l-148 78q-106 55 -137 125q-25 51 -27 180l-8 445l-416 -828l-145 72q-113 55 -145.5 113.5t-53.5 232.5l-90 756q-14 127 -35 180q-18 45 -63 98h457q-6 -51 -6 -73q0 -74 12 -179l86 -727l379 766q-29 144 -70 213h463
q-31 -69 -31 -157q0 -25 2 -47v-39l19 -731l424 761q49 88 49 133q0 41 -45 80h362z" />
    <glyph glyph-name="X" unicode="X" horiz-adv-x="1380" 
d="M1551 1423q-9 -10 -24 -27.5t-130 -144.5l-434 -481l108 -281q156 -401 269 -489q-150 -29 -256 -29q-131 0 -210 62.5t-134 208.5l-119 315l-297 -344q-98 -115 -98 -143q0 -29 36 -70h-403q66 66 160 170l524 582l-129 333q-96 248 -186 338h481l178 -450l209 239
q98 113 98 154q0 27 -39 57h396z" />
    <glyph glyph-name="Y" unicode="Y" horiz-adv-x="1245" 
d="M1447 1423l-131 -170l-442 -612l-74 -328q-25 -108 -25 -178q0 -57 56 -135h-576q76 57 110 118.5t62 194.5l72 326q-45 178 -165 421t-218 353q123 39 215 39q127 0 205 -52t141 -183q14 -31 137 -330l240 356q51 76 51 113q0 33 -41 67h383z" />
    <glyph glyph-name="Z" unicode="Z" horiz-adv-x="1267" 
d="M1395 1423l-17 -20l-86 -125l-760 -1059q82 -8 160 -8q187 0 313 34t257 120l-199 -365h-1149q18 27 76 106q22 33 55 78l748 1041q-66 8 -115 8q-236 0 -447 -133l160 323h1004z" />
    <glyph glyph-name="bracketleft" unicode="[" horiz-adv-x="690" 
d="M846 1460l-31 -141h-164l-321 -1448h164l-31 -139h-508q63 43 81.5 83t57.5 214l252 1140q31 140 31 193q0 57 -55 98h524z" />
    <glyph glyph-name="backslash" unicode="\" horiz-adv-x="1210" 
d="M935 -135h-186l-387 1610h186z" />
    <glyph glyph-name="bracketright" unicode="]" horiz-adv-x="690" 
d="M791 1460q-64 -47 -82 -86t-57 -213l-252 -1141q-31 -139 -31 -192q0 -55 55 -96h-524l31 139h164l321 1448h-164l31 141h508z" />
    <glyph glyph-name="asciicircum" unicode="^" horiz-adv-x="1067" 
d="M1103 723h-342l-176 446l-174 -446h-344l301 711h434z" />
    <glyph glyph-name="underscore" unicode="_" horiz-adv-x="1067" 
d="M1118 -336h-1067v230h1067v-230z" />
    <glyph glyph-name="grave" unicode="`" horiz-adv-x="1075" 
d="M803 1151l-105 -41l-475 291l164 145z" />
    <glyph glyph-name="a" unicode="a" horiz-adv-x="1222" 
d="M1206 1024l-153 -694q-13 -56 -13 -86q0 -64 68 -64q45 0 94 19l-145 -187q-92 -41 -176 -41q-215 0 -215 189q0 51 26 170l103 461q-62 34 -103 34q-90 0 -151 -94q-113 -174 -113 -381q0 -82 41 -131t113 -49q22 0 39 4l-105 -184q-74 -17 -125 -17q-162 0 -255 96.5
t-93 264.5q0 143 61.5 283.5t163.5 234.5q170 156 459 156q70 0 225 -21q31 -4 68 -4q96 0 186 41z" />
    <glyph glyph-name="b" unicode="b" horiz-adv-x="1228" 
d="M1184 641q0 -158 -71 -297t-198 -229q-196 -142 -532 -142q-195 0 -381 74q49 49 70 148q4 20 12 59l201 901q24 111 24 158q0 53 -53 108q287 2 346 7.5t117 33.5l-283 -1274q51 -32 103 -32q108 0 183 125t75 311t-131 186q-29 0 -72 -16l137 219q72 27 143 27
q310 0 310 -367z" />
    <glyph glyph-name="c" unicode="c" horiz-adv-x="968" 
d="M1001 831q0 -67 -53 -112t-133 -45q-76 0 -123 35q43 34 43 71q0 45 -59 45q-94 0 -169 -139t-75 -317q0 -101 49 -157t133 -56q162 0 328 131l-131 -254q-156 -60 -334 -60q-432 0 -432 389q0 275 189.5 460.5t469.5 185.5q138 0 217.5 -47.5t79.5 -129.5z" />
    <glyph glyph-name="d" unicode="d" 
d="M1289 1462l-250 -1132q-14 -66 -14 -86q0 -64 62 -64q36 0 108 19l-145 -187q-84 -41 -178 -41q-213 0 -213 191q0 47 26 168l101 456q-41 39 -97 39q-90 0 -153 -96q-113 -170 -113 -385q0 -174 147 -174q25 0 46 4l-107 -188q-63 -13 -125 -13q-164 0 -255 96.5
t-91 270.5q0 307 225 516q164 152 416 152q76 0 152 -15l36 162q25 109 25 158q0 53 -53 108q123 0 301 4q90 5 149 37z" />
    <glyph glyph-name="e" unicode="e" horiz-adv-x="1042" 
d="M1062 788q0 -94 -78 -181t-211 -140q-125 -49 -344 -72q2 -82 23 -139q35 -98 153 -98q185 0 348 182l-69 -266q-219 -101 -424 -101q-203 0 -312.5 94.5t-109.5 270.5q0 280 199.5 475t484.5 195q158 0 249 -59.5t91 -160.5zM714 752q0 57 -70 57q-69 0 -123.5 -77
t-74.5 -204q94 15 167 72q101 78 101 152z" />
    <glyph glyph-name="f" unicode="f" horiz-adv-x="753" 
d="M1057 1415l-156 -217q-40 74 -110 74q-86 0 -121 -156l-31 -135h258l-51 -236q-29 54 -112 54h-136l-135 -615q-76 -340 -207 -501q-125 -154 -348 -154q-123 0 -221 49l113 131q47 -31 84 -31q77 0 114 97q15 30 80 299l160 725h-139l182 188q47 236 164 344
q131 121 370 121q132 0 242 -37z" />
    <glyph glyph-name="g" unicode="g" horiz-adv-x="1150" 
d="M1188 1024l-201 -909q-41 -191 -70.5 -265.5t-86.5 -146.5q-131 -162 -408 -162q-188 0 -309 70t-121 178q0 72 49 118t127 46q84 0 152 -55q-54 -25 -54 -76q0 -37 32 -60.5t81 -23.5q113 0 162 110q37 84 84 295l143 643q-41 25 -84 25q-98 0 -173 -124t-75 -286
q0 -188 146 -188q12 0 24 2l-108 -186q-53 -11 -96 -11q-131 0 -207 50q-146 94 -146 286q0 260 168 451q178 203 492 203q92 0 219 -19q70 -10 108 -10q76 0 152 45z" />
    <glyph glyph-name="h" unicode="h" horiz-adv-x="1228" 
d="M1210 199l-145 -187q-90 -41 -176 -41q-215 0 -215 189q0 51 27 170l61 272q12 55 12 80q0 84 -88 84q-92 0 -129 -68q-24 -47 -57 -186l-45 -199q-31 -135 -31 -202q0 -48 33 -111h-504q55 53 83 113.5t58 199.5l187 842q24 111 24 160q0 51 -53 106q283 2 342 7.5
t117 33.5l-133 -596q84 86 146.5 119t146.5 33q118 0 196 -72t78 -182q0 -53 -23 -156l-61 -278q-12 -58 -12 -86q0 -64 61 -64q33 0 100 19z" />
    <glyph glyph-name="i" unicode="i" horiz-adv-x="647" 
d="M685 1296q0 -98 -60.5 -161.5t-154.5 -63.5q-90 0 -143 53.5t-53 141.5q0 100 61 158.5t164 58.5q84 0 135 -51.5t51 -135.5zM622 1024l-154 -694q-14 -66 -14 -88q0 -62 63 -62q37 0 86 19l-145 -187q-90 -41 -184 -41q-193 0 -193 193q0 45 27 166l86 389
q24 110 24 158q0 53 -53 108q96 0 307 4q88 2 150 35z" />
    <glyph glyph-name="j" unicode="j" horiz-adv-x="659" 
d="M722 1296q0 -98 -60.5 -161.5t-154.5 -63.5q-90 0 -143.5 53.5t-53.5 141.5q0 100 61.5 158.5t164.5 58.5q83 0 134.5 -51.5t51.5 -135.5zM652 1026l-192 -876q-56 -248 -87.5 -332t-95.5 -142q-114 -106 -356 -106q-61 0 -133 10q141 84 191.5 178.5t115.5 382.5
l129 578q25 110 25 158q0 55 -53 108q98 0 307 4q90 2 149 37z" />
    <glyph glyph-name="k" unicode="k" horiz-adv-x="1169" 
d="M1170 0q-152 -27 -263 -27q-139 0 -202 58q-29 24 -43 51q-11 16 -74 143l-111 219l-30 -137q-31 -137 -31 -198q0 -46 35 -109h-498q55 51 82 110.5t57 196.5l189 848q24 111 24 158q0 53 -53 108q276 2 334.5 7.5t116.5 33.5l-129 -585q163 131 337 131
q115 0 182.5 -63.5t67.5 -174.5q0 -115 -76.5 -194.5t-213.5 -104.5l94 -184q86 -168 120.5 -216t84.5 -71zM791 666q0 98 -97 98q-73 0 -117 -53.5t-77 -178.5q59 -8 90 -8q90 0 145.5 39t55.5 103z" />
    <glyph glyph-name="l" unicode="l" horiz-adv-x="618" 
d="M708 1462l-250 -1132q-14 -66 -14 -88q0 -62 63 -62q37 0 86 19l-145 -187q-94 -41 -178 -41q-95 0 -147 50.5t-52 140.5q0 47 27 168l182 825q24 111 24 158q0 55 -53 108q283 2 341.5 7.5t115.5 33.5z" />
    <glyph glyph-name="m" unicode="m" horiz-adv-x="1832" 
d="M1801 199l-145 -187q-91 -41 -175 -41q-202 0 -202 191q0 57 24 168l62 276q14 66 14 92q0 70 -84 70q-72 0 -110.5 -49t-67.5 -178l-49 -228q-33 -151 -33 -202q0 -48 35 -111h-506q55 51 82 112.5t59 200.5l70 308q8 36 8 71q0 74 -84 74q-72 0 -111.5 -54.5
t-70.5 -189.5l-47 -209q-31 -137 -31 -202q0 -48 33 -111h-504q55 53 83 113.5t58 199.5l90 406q25 110 25 158q0 53 -53 108q246 0 307 2q84 2 149 37l-34 -158q151 152 313 152q184 0 256 -172q84 96 153.5 134t159.5 38q119 0 196 -70.5t77 -181.5q0 -68 -13 -123
l-69 -313q-12 -56 -12 -86q0 -64 61 -64q37 0 86 19z" />
    <glyph glyph-name="n" unicode="n" horiz-adv-x="1243" 
d="M1211 199l-145 -187q-94 -41 -172 -41q-97 0 -151 50.5t-54 138.5q0 51 27 170l57 258q18 84 18 106q0 80 -88 80q-131 0 -182 -231l-51 -230q-31 -137 -31 -202q0 -48 33 -111h-504q55 53 83 113.5t58 199.5l90 406q25 110 25 158q0 53 -53 108q246 0 307 2q84 2 149 37
l-34 -158q84 86 146.5 119t146.5 33q118 0 196 -72t78 -182q0 -53 -23 -156l-61 -278q-12 -58 -12 -86q0 -64 61 -64q37 0 86 19z" />
    <glyph glyph-name="o" unicode="o" 
d="M1161 584q0 -156 -68.5 -293t-187.5 -219q-144 -99 -354 -99q-492 0 -492 420q0 301 197 475q157 140 426 140q231 0 355 -110t124 -314zM784 631q0 194 -119 194q-94 0 -161.5 -138t-67.5 -329q0 -202 123 -202q106 0 165.5 156.5t59.5 318.5z" />
    <glyph glyph-name="p" unicode="p" horiz-adv-x="1230" 
d="M1184 647q0 -250 -139.5 -441.5t-372.5 -191.5q-88 0 -160 33l-29 195q52 -31 99 -31q98 0 147 94q68 127 68 311q0 156 -113 156q-67 0 -104 -64.5t-80 -252.5l-129 -580q-31 -137 -31 -203q0 -47 33 -110h-504q55 51 83 112.5t58 200.5l187 844q26 121 26 155
q0 56 -55 111q246 0 309 2q82 2 150 37l-35 -158q108 142 285 142q307 0 307 -361z" />
    <glyph glyph-name="q" unicode="q" horiz-adv-x="1179" 
d="M1194 1024l-254 -1149q-33 -147 -33 -203q0 -47 35 -110h-504q55 53 82.5 113.5t58.5 199.5l201 911q-47 39 -88 39q-99 0 -172.5 -126t-73.5 -293q0 -191 137 -191q15 0 29 2l-111 -186q-69 -11 -121 -11q-149 0 -234 93.5t-85 257.5q0 155 66.5 292.5t185.5 225.5
q160 119 389 119q68 0 268 -21q21 -2 58 -2q77 0 166 39z" />
    <glyph glyph-name="r" unicode="r" horiz-adv-x="829" 
d="M933 1006l-66 -304q-57 43 -119 43q-114 0 -172 -98q-47 -80 -78 -211l-28 -123q-31 -131 -31 -202q0 -48 33 -111h-504q55 53 83 113.5t58 199.5l90 406q25 110 25 158q0 53 -53 108q53 -4 250 -4q135 0 206 35l-47 -203q123 195 306 195q28 0 47 -2z" />
    <glyph glyph-name="s" unicode="s" horiz-adv-x="960" 
d="M915 958l-28 -227q-137 109 -262 109q-115 0 -115 -82q0 -62 98 -115q154 -84 209 -145.5t55 -159.5q0 -162 -131 -263.5t-340 -101.5q-196 0 -356 54l2 243q131 -129 313 -129q70 0 112 24.5t42 65.5q0 56 -100 107q-168 86 -221.5 153.5t-53.5 159.5q0 164 127 260.5
t342 96.5q172 0 307 -50z" />
    <glyph glyph-name="t" unicode="t" horiz-adv-x="718" 
d="M821 981l-57 -258q-49 76 -133 76h-70l-86 -391q-20 -93 -20 -127q0 -105 123 -105q12 0 79 6l-94 -174q-98 -33 -203 -33q-124 0 -199 69t-75 183q0 58 25 168l90 404h-109l35 159q291 27 371 338h149l-69 -315h243z" />
    <glyph glyph-name="u" unicode="u" horiz-adv-x="1228" 
d="M1208 1024l-149 -670q-17 -73 -17 -116q0 -56 60 -56q39 0 100 21l-143 -189q-97 -41 -183 -41q-184 0 -211 160q-133 -160 -317 -160q-111 0 -184.5 72t-73.5 178q0 43 16 117l84 379q27 121 27 158q0 53 -55 108q98 0 309 4q86 2 149 35l-137 -616q-20 -93 -20 -123
q0 -68 73 -68q86 0 127 64q29 43 52 149l63 289q25 112 25 158q0 53 -54 108q97 0 310 4q86 2 149 35z" />
    <glyph glyph-name="v" unicode="v" horiz-adv-x="1032" 
d="M1060 774q0 -145 -66.5 -298.5t-179.5 -274.5q-215 -228 -487 -228q-244 0 -244 201q0 68 18 150l88 395q25 110 25 158q0 53 -53 108q248 0 309 2q82 2 150 37l-154 -690q-10 -45 -10 -68q0 -57 57 -57q113 0 216.5 144.5t103.5 301.5q0 70 -32 112t-85 42
q-27 0 -55 -23q-5 11 -5 29q0 84 55.5 138.5t141.5 54.5q96 0 151.5 -63.5t55.5 -170.5z" />
    <glyph glyph-name="w" unicode="w" horiz-adv-x="1615" 
d="M1640 774q0 -301 -225 -551t-498 -250q-206 0 -247 174q-140 -174 -318 -174q-114 0 -189 70t-75 178q0 39 16 113l86 385q25 110 25 155q0 58 -53 111q245 0 307 2q84 2 149 37l-137 -616q-18 -82 -18 -125q0 -66 74 -66q67 0 105 44t60 147l70 311q25 110 25 158
q0 55 -54 108q246 0 308 2q84 2 149 37l-154 -690q-8 -37 -8 -68q0 -57 58 -57q110 0 213.5 145.5t103.5 300.5q0 70 -31.5 112t-83.5 42q-26 0 -55 -23q-4 15 -4 31q0 82 55.5 136.5t139.5 54.5q96 0 151 -63.5t55 -170.5z" />
    <glyph glyph-name="x" unicode="x" horiz-adv-x="1142" 
d="M1148 741q-60 33 -109 33q-45 0 -80 -31q-10 -8 -121 -129l-65 -71l113 -236q69 -147 104 -201q41 -61 100 -106q-120 -27 -223 -27q-143 0 -214 47.5t-130 184.5l-53 121l-154 -183q-131 -157 -219 -157q-65 0 -129 34l-4 222q51 -31 106 -31q64 0 105 33q49 37 170 186
l43 53l-131 283q-51 108 -68 137q-24 43 -61 78h479q2 -80 41 -170l45 -104l35 45q104 135 174 190t143 55q52 0 103 -36v-220z" />
    <glyph glyph-name="y" unicode="y" horiz-adv-x="1175" 
d="M1190 1024l-201 -909q-61 -277 -164 -404q-137 -170 -409 -170q-182 0 -302 71t-120 177q0 72 49 118t127 46q84 0 152 -55q-54 -25 -54 -78q0 -86 127 -86q123 0 183 147q26 68 57 219l14 72q-129 -141 -319 -141q-119 0 -184.5 54t-65.5 151q0 61 23 161l71 322
q25 110 25 158q0 55 -53 108q94 0 301 4q86 2 149 35l-125 -559q-20 -92 -20 -125q0 -66 75 -66q80 0 117 44t66 169l51 232q33 147 33 172q0 49 -62 94q101 0 312 4q92 2 147 35z" />
    <glyph glyph-name="z" unicode="z" horiz-adv-x="1032" 
d="M1125 981l-662 -659h31q39 0 84 -5q88 -8 115 -8q141 0 297 66l-224 -385q-92 -8 -147 -8q-68 0 -254 16q-117 10 -197 10q-157 0 -274 -14l672 670q-74 8 -152 8q-176 0 -305 -76l150 385h866z" />
    <glyph glyph-name="braceleft" unicode="{" horiz-adv-x="690" 
d="M856 1460l-31 -133h-43q-72 0 -98 -37q-15 -22 -35 -112l-62 -277q-30 -141 -83.5 -207.5t-155.5 -91.5q123 -49 123 -172q0 -51 -19 -135l-65 -301q-13 -57 -13 -68q0 -61 70 -61h57l-28 -133h-260q-132 0 -132 96q0 31 9 68l94 428q20 92 20 120q0 91 -141 105l27 115
q100 -2 145 44t74 175l78 358q32 154 61 182q35 37 180 37h228z" />
    <glyph glyph-name="bar" unicode="|" horiz-adv-x="1067" 
d="M782 -356h-395v1779h395v-1779z" />
    <glyph glyph-name="braceright" unicode="}" horiz-adv-x="698" 
d="M693 664l-27 -115q-112 -14 -152 -55t-69 -170l-94 -428q-21 -89 -66 -126.5t-131 -37.5h-266l29 133h59q51 0 74.5 26.5t40.5 102.5l67 301q31 135 85.5 204.5t154.5 102.5q-123 37 -123 158q0 67 16 141l62 277q14 65 14 94q0 37 -19.5 46t-62.5 9h-43l29 133h235
q84 0 105 -4q65 -12 65 -61q0 -23 -28 -154l-78 -358q-16 -76 -16 -119q0 -62 39 -84q30 -14 100 -16z" />
    <glyph glyph-name="asciitilde" unicode="~" horiz-adv-x="1423" 
d="M1283 1473q-51 -130 -106 -201q-94 -119 -225 -119q-50 0 -273 86q-80 31 -115 31q-61 0 -131 -119l-186 158q123 315 330 315q67 0 291 -88q61 -25 98 -25q39 0 64.5 24t66.5 95z" />
    <glyph glyph-name="dieresis" unicode="&#xa8;" horiz-adv-x="1033" 
 />
    <glyph glyph-name="copyright" unicode="&#xa9;" horiz-adv-x="1613" 
d="M1611 795q0 -338 -243.5 -581t-583.5 -243q-295 0 -485.5 186.5t-190.5 475.5q0 340 246 579.5t592 239.5q286 0 475.5 -187.5t189.5 -469.5zM1484 786q0 242 -160.5 396.5t-412.5 154.5q-273 0 -474.5 -207.5t-201.5 -488.5q0 -242 158.5 -398.5t402.5 -156.5
q283 0 485.5 206t202.5 494zM1226 1098l-20 -205q-84 106 -193 106q-112 0 -186 -97t-74 -245q0 -106 51.5 -166.5t139.5 -60.5q108 0 270 92l-111 -186q-104 -47 -231 -47q-189 0 -298.5 94t-109.5 256q0 211 158 352.5t393 141.5q105 0 211 -35z" />
    <glyph glyph-name="registered" unicode="&#xae;" horiz-adv-x="1613" 
d="M1611 795q0 -338 -243.5 -581t-583.5 -243q-295 0 -485.5 186.5t-190.5 475.5q0 340 246 579.5t592 239.5q286 0 475.5 -187.5t189.5 -469.5zM1484 786q0 242 -160.5 396.5t-412.5 154.5q-273 0 -474.5 -207.5t-201.5 -488.5q0 -242 158.5 -398.5t402.5 -156.5
q283 0 485.5 206t202.5 494zM1261 311q-74 -12 -149 -12q-127 0 -179.5 44t-91.5 185l-39 142l-45 -201q-14 -63 -14 -80q0 -33 49 -82h-405q61 43 76.5 65.5t31.5 96.5l109 487q14 64 14 80q0 27 -49 82h350q168 0 233 -28q99 -43 99 -168q0 -115 -80 -179
q-43 -34 -131 -45l31 -75q106 -261 190 -312zM993 913q0 84 -119 84l-55 -252h30q64 0 104 47.5t40 120.5z" />
    <glyph glyph-name="acute" unicode="&#xb4;" horiz-adv-x="1033" 
 />
    <glyph glyph-name="paragraph" unicode="&#xb6;" horiz-adv-x="1033" 
 />
    <glyph glyph-name="onequarter" unicode="&#xbc;" horiz-adv-x="1967" 
 />
    <glyph glyph-name="onehalf" unicode="&#xbd;" horiz-adv-x="1967" 
 />
    <glyph glyph-name="threequarters" unicode="&#xbe;" horiz-adv-x="1967" 
 />
    <glyph glyph-name="Agrave" unicode="&#xc0;" horiz-adv-x="1396" 
d="M1086 1594l-96 -60l-518 211l136 174zM1387 0h-569q92 70 92 123q0 8 -6 61l-4 35l-29 205h-473l-82 -145q-88 -156 -88 -197q0 -29 51 -82h-430q63 41 95 83t134 216l482 825q63 109 63 172q0 76 -69 127h530l213 -1204q18 -102 32.5 -139t57.5 -80zM840 623l-67 469
l-265 -469h332z" />
    <glyph glyph-name="Aacute" unicode="&#xc1;" horiz-adv-x="1396" 
d="M1332 1746l-520 -208l-115 45l495 327zM1387 0h-569q92 70 92 123q0 8 -6 61l-4 35l-29 205h-473l-82 -145q-88 -156 -88 -197q0 -29 51 -82h-430q63 41 95 83t134 216l482 825q63 109 63 172q0 76 -69 127h530l213 -1204q18 -102 32.5 -139t57.5 -80zM840 623l-67 469
l-265 -469h332z" />
    <glyph glyph-name="uni1EA2" unicode="&#x1ea2;" horiz-adv-x="1396" 
d="M1387 0h-569q92 70 92 123q0 8 -6 61l-4 35l-29 205h-473l-82 -145q-88 -156 -88 -197q0 -29 51 -82h-430q63 41 95 83t134 216l482 825q63 109 63 172q0 76 -69 127h530l213 -1204q18 -102 32.5 -139t57.5 -80zM840 623l-67 469l-265 -469h332zM1143 1769
q-13 -65 -65 -111q-28 -25 -92.5 -64t-71.5 -73q-1 -5 0 -18h-133q2 22 4 29q11 58 82 114q77 59 86 105q8 37 -17.5 62t-72.5 25q-48 0 -111 -34l65 121q57 20 132 20q101 0 155.5 -49t38.5 -127z" />
    <glyph glyph-name="Atilde" unicode="&#xc3;" horiz-adv-x="1396" 
d="M1351 1824l-12 -24q-66 -132 -122 -180.5t-137 -48.5q-54 0 -221 39q-118 28 -192 28q-115 0 -205 -63q68 129 112 177q64 70 157 70q64 0 223 -40q120 -30 191 -30q116 0 206 72zM1387 0h-569q92 70 92 123q0 8 -6 61l-4 35l-29 205h-473l-82 -145q-88 -156 -88 -197
q0 -29 51 -82h-430q63 41 95 83t134 216l482 825q63 109 63 172q0 76 -69 127h530l213 -1204q18 -102 32.5 -139t57.5 -80zM840 623l-67 469l-265 -469h332z" />
    <glyph glyph-name="uni1EA0" unicode="&#x1ea0;" horiz-adv-x="1396" 
d="M655 -272q0 -80 -48 -130t-126 -50q-152 0 -152 153q0 78 50 125t132 47q144 0 144 -145zM1387 0h-569q92 70 92 123q0 8 -6 61l-4 35l-29 205h-473l-82 -145q-88 -156 -88 -197q0 -29 51 -82h-430q63 41 95 83t134 216l482 825q63 109 63 172q0 76 -69 127h530
l213 -1204q18 -102 32.5 -139t57.5 -80zM840 623l-67 469l-265 -469h332z" />
    <glyph glyph-name="Acircumflex" unicode="&#xc2;" horiz-adv-x="1396" 
d="M1265 1580l-73 -48l-314 121l-313 -119l-84 58l443 289zM1387 0h-569q92 70 92 123q0 8 -6 61l-4 35l-29 205h-473l-82 -145q-88 -156 -88 -197q0 -29 51 -82h-430q63 41 95 83t134 216l482 825q63 109 63 172q0 76 -69 127h530l213 -1204q18 -102 32.5 -139t57.5 -80z
M840 623l-67 469l-265 -469h332z" />
    <glyph glyph-name="uni1EA6" unicode="&#x1ea6;" horiz-adv-x="1396" 
d="M1267 1883l-96 -60l-518 211l136 174zM1387 0h-569q92 70 92 123q0 8 -6 61l-4 35l-29 205h-473l-82 -145q-88 -156 -88 -197q0 -29 51 -82h-430q63 41 95 83t134 216l482 825q63 109 63 172q0 76 -69 127h530l213 -1204q18 -102 32.5 -139t57.5 -80zM840 623l-67 469
l-265 -469h332zM1265 1580l-73 -48l-314 121l-313 -119l-84 58l443 289z" />
    <glyph glyph-name="uni1EA4" unicode="&#x1ea4;" horiz-adv-x="1396" 
d="M1223 2063l-520 -208l-115 45l495 327zM1387 0h-569q92 70 92 123q0 8 -6 61l-4 35l-29 205h-473l-82 -145q-88 -156 -88 -197q0 -29 51 -82h-430q63 41 95 83t134 216l482 825q63 109 63 172q0 76 -69 127h530l213 -1204q18 -102 32.5 -139t57.5 -80zM840 623l-67 469
l-265 -469h332zM1265 1580l-73 -48l-314 121l-313 -119l-84 58l443 289z" />
    <glyph glyph-name="uni1EA8" unicode="&#x1ea8;" horiz-adv-x="1396" 
d="M1387 0h-569q92 70 92 123q0 8 -6 61l-4 35l-29 205h-473l-82 -145q-88 -156 -88 -197q0 -29 51 -82h-430q63 41 95 83t134 216l482 825q63 109 63 172q0 76 -69 127h530l213 -1204q18 -102 32.5 -139t57.5 -80zM840 623l-67 469l-265 -469h332zM1496 2032
q-13 -65 -65 -111q-28 -25 -92.5 -64t-71.5 -73q-1 -5 0 -18h-133q2 22 4 29q11 58 82 114q77 59 86 105q8 37 -17.5 62t-72.5 25q-48 0 -111 -34l65 121q57 20 132 20q101 0 155.5 -49t38.5 -127zM1265 1580l-73 -48l-314 121l-313 -119l-84 58l443 289z" />
    <glyph glyph-name="uni1EAA" unicode="&#x1eaa;" horiz-adv-x="1396" 
d="M1478 2131l-12 -24q-66 -132 -122 -180.5t-137 -48.5q-54 0 -221 39q-118 28 -192 28q-115 0 -205 -63q68 129 112 177q64 70 157 70q64 0 223 -40q120 -30 191 -30q116 0 206 72zM1387 0h-569q92 70 92 123q0 8 -6 61l-4 35l-29 205h-473l-82 -145q-88 -156 -88 -197
q0 -29 51 -82h-430q63 41 95 83t134 216l482 825q63 109 63 172q0 76 -69 127h530l213 -1204q18 -102 32.5 -139t57.5 -80zM840 623l-67 469l-265 -469h332zM1265 1580l-73 -48l-314 121l-313 -119l-84 58l443 289z" />
    <glyph glyph-name="uni1EAC" unicode="&#x1eac;" horiz-adv-x="1396" 
d="M655 -272q0 -80 -48 -130t-126 -50q-152 0 -152 153q0 78 50 125t132 47q144 0 144 -145zM1387 0h-569q92 70 92 123q0 8 -6 61l-4 35l-29 205h-473l-82 -145q-88 -156 -88 -197q0 -29 51 -82h-430q63 41 95 83t134 216l482 825q63 109 63 172q0 76 -69 127h530
l213 -1204q18 -102 32.5 -139t57.5 -80zM840 623l-67 469l-265 -469h332zM1265 1580l-73 -48l-314 121l-313 -119l-84 58l443 289z" />
    <glyph glyph-name="Abreve" unicode="&#x102;" horiz-adv-x="1396" 
d="M1387 0h-569q92 70 92 123q0 8 -6 61l-4 35l-29 205h-473l-82 -145q-88 -156 -88 -197q0 -29 51 -82h-430q63 41 95 83t134 216l482 825q63 109 63 172q0 76 -69 127h530l213 -1204q18 -102 32.5 -139t57.5 -80zM840 623l-67 469l-265 -469h332zM1277 1746
q-84 -133 -176 -186t-229 -53q-136 0 -207 53t-102 186l136 51q46 -124 206 -124q162 0 258 124z" />
    <glyph glyph-name="uni1EB0" unicode="&#x1eb0;" horiz-adv-x="1396" 
d="M1123 1856l-96 -60l-518 211l136 174zM1387 0h-569q92 70 92 123q0 8 -6 61l-4 35l-29 205h-473l-82 -145q-88 -156 -88 -197q0 -29 51 -82h-430q63 41 95 83t134 216l482 825q63 109 63 172q0 76 -69 127h530l213 -1204q18 -102 32.5 -139t57.5 -80zM840 623l-67 469
l-265 -469h332zM1277 1746q-84 -133 -176 -186t-229 -53q-136 0 -207 53t-102 186l136 51q46 -124 206 -124q162 0 258 124z" />
    <glyph glyph-name="uni1EAE" unicode="&#x1eae;" horiz-adv-x="1396" 
d="M1406 1969l-520 -208l-115 45l495 327zM1387 0h-569q92 70 92 123q0 8 -6 61l-4 35l-29 205h-473l-82 -145q-88 -156 -88 -197q0 -29 51 -82h-430q63 41 95 83t134 216l482 825q63 109 63 172q0 76 -69 127h530l213 -1204q18 -102 32.5 -139t57.5 -80zM840 623l-67 469
l-265 -469h332zM1277 1746q-84 -133 -176 -186t-229 -53q-136 0 -207 53t-102 186l136 51q46 -124 206 -124q162 0 258 124z" />
    <glyph glyph-name="uni1EB2" unicode="&#x1eb2;" horiz-adv-x="1396" 
d="M1387 0h-569q92 70 92 123q0 8 -6 61l-4 35l-29 205h-473l-82 -145q-88 -156 -88 -197q0 -29 51 -82h-430q63 41 95 83t134 216l482 825q63 109 63 172q0 76 -69 127h530l213 -1204q18 -102 32.5 -139t57.5 -80zM840 623l-67 469l-265 -469h332zM1242 2032
q-13 -65 -65 -111q-28 -25 -92.5 -64t-71.5 -73q-1 -5 0 -18h-133q2 22 4 29q11 58 82 114q77 59 86 105q8 37 -17.5 62t-72.5 25q-48 0 -111 -34l65 121q57 20 132 20q101 0 155.5 -49t38.5 -127zM1277 1746q-84 -133 -176 -186t-229 -53q-136 0 -207 53t-102 186l136 51
q46 -124 206 -124q162 0 258 124z" />
    <glyph glyph-name="uni1EB4" unicode="&#x1eb4;" horiz-adv-x="1396" 
d="M1487 2095l-12 -24q-66 -132 -122 -180.5t-137 -48.5q-54 0 -221 39q-118 28 -192 28q-115 0 -205 -63q68 129 112 177q64 70 157 70q64 0 223 -40q120 -30 191 -30q116 0 206 72zM1387 0h-569q92 70 92 123q0 8 -6 61l-4 35l-29 205h-473l-82 -145q-88 -156 -88 -197
q0 -29 51 -82h-430q63 41 95 83t134 216l482 825q63 109 63 172q0 76 -69 127h530l213 -1204q18 -102 32.5 -139t57.5 -80zM840 623l-67 469l-265 -469h332zM1277 1746q-84 -133 -176 -186t-229 -53q-136 0 -207 53t-102 186l136 51q46 -124 206 -124q162 0 258 124z" />
    <glyph glyph-name="uni1EB6" unicode="&#x1eb6;" horiz-adv-x="1396" 
d="M655 -272q0 -80 -48 -130t-126 -50q-152 0 -152 153q0 78 50 125t132 47q144 0 144 -145zM1387 0h-569q92 70 92 123q0 8 -6 61l-4 35l-29 205h-473l-82 -145q-88 -156 -88 -197q0 -29 51 -82h-430q63 41 95 83t134 216l482 825q63 109 63 172q0 76 -69 127h530
l213 -1204q18 -102 32.5 -139t57.5 -80zM840 623l-67 469l-265 -469h332zM1277 1746q-84 -133 -176 -186t-229 -53q-136 0 -207 53t-102 186l136 51q46 -124 206 -124q162 0 258 124z" />
    <glyph glyph-name="Egrave" unicode="&#xc8;" horiz-adv-x="1097" 
d="M1109 1423l-70 -321q-26 94 -129 112q-24 7 -190 5l-82 -365h135q115 0 172 18l-72 -327q-14 65 -41.5 81.5t-119.5 16.5h-121l-88 -399q100 -43 235 -43q121 0 192.5 24.5t174.5 102.5l-168 -328h-977q74 57 107.5 118.5t62.5 194.5l176 797q27 121 27 178q0 53 -58 135
h834zM1024 1594l-96 -60l-518 211l136 174z" />
    <glyph glyph-name="Eacute" unicode="&#xc9;" horiz-adv-x="1097" 
d="M1109 1423l-70 -321q-26 94 -129 112q-24 7 -190 5l-82 -365h135q115 0 172 18l-72 -327q-14 65 -41.5 81.5t-119.5 16.5h-121l-88 -399q100 -43 235 -43q121 0 192.5 24.5t174.5 102.5l-168 -328h-977q74 57 107.5 118.5t62.5 194.5l176 797q27 121 27 178q0 53 -58 135
h834zM1143 1746l-520 -208l-115 45l495 327z" />
    <glyph glyph-name="uni1EBA" unicode="&#x1eba;" horiz-adv-x="1097" 
d="M1109 1423l-70 -321q-26 94 -129 112q-24 7 -190 5l-82 -365h135q115 0 172 18l-72 -327q-14 65 -41.5 81.5t-119.5 16.5h-121l-88 -399q100 -43 235 -43q121 0 192.5 24.5t174.5 102.5l-168 -328h-977q74 57 107.5 118.5t62.5 194.5l176 797q27 121 27 178q0 53 -58 135
h834zM1035 1769q-13 -65 -65 -111q-28 -25 -92.5 -64t-71.5 -73q-1 -5 0 -18h-133q2 22 4 29q11 58 82 114q77 59 86 105q8 37 -17.5 62t-72.5 25q-48 0 -111 -34l65 121q57 20 132 20q101 0 155.5 -49t38.5 -127z" />
    <glyph glyph-name="uni1EBC" unicode="&#x1ebc;" horiz-adv-x="1097" 
d="M1109 1423l-70 -321q-26 94 -129 112q-24 7 -190 5l-82 -365h135q115 0 172 18l-72 -327q-14 65 -41.5 81.5t-119.5 16.5h-121l-88 -399q100 -43 235 -43q121 0 192.5 24.5t174.5 102.5l-168 -328h-977q74 57 107.5 118.5t62.5 194.5l176 797q27 121 27 178q0 53 -58 135
h834zM1262 1824l-12 -24q-66 -132 -122 -180.5t-137 -48.5q-54 0 -221 39q-118 28 -192 28q-115 0 -205 -63q68 129 112 177q63 70 157 70q64 0 223 -40q120 -30 191 -30q116 0 206 72z" />
    <glyph glyph-name="uni1EB8" unicode="&#x1eb8;" horiz-adv-x="1097" 
d="M1109 1423l-70 -321q-26 94 -129 112q-24 7 -190 5l-82 -365h135q115 0 172 18l-72 -327q-14 65 -41.5 81.5t-119.5 16.5h-121l-88 -399q100 -43 235 -43q121 0 192.5 24.5t174.5 102.5l-168 -328h-977q74 57 107.5 118.5t62.5 194.5l176 797q27 121 27 178q0 53 -58 135
h834zM593 -272q0 -80 -48.5 -130t-125.5 -50q-152 0 -152 153q0 78 50 125t132 47q144 0 144 -145z" />
    <glyph glyph-name="Ecircumflex" unicode="&#xca;" horiz-adv-x="1097" 
d="M1109 1423l-70 -321q-26 94 -129 112q-24 7 -190 5l-82 -365h135q115 0 172 18l-72 -327q-14 65 -41.5 81.5t-119.5 16.5h-121l-88 -399q100 -43 235 -43q121 0 192.5 24.5t174.5 102.5l-168 -328h-977q74 57 107.5 118.5t62.5 194.5l176 797q27 121 27 178q0 53 -58 135
h834zM1139 1580l-73 -48l-314 121l-313 -119l-85 58l444 289z" />
    <glyph glyph-name="uni1EC0" unicode="&#x1ec0;" horiz-adv-x="1097" 
d="M1109 1423l-70 -321q-26 94 -129 112q-24 7 -190 5l-82 -365h135q115 0 172 18l-72 -327q-14 65 -41.5 81.5t-119.5 16.5h-121l-88 -399q100 -43 235 -43q121 0 192.5 24.5t174.5 102.5l-168 -328h-977q74 57 107.5 118.5t62.5 194.5l176 797q27 121 27 178q0 53 -58 135
h834zM1133 1901l-96 -60l-518 211l136 174zM1139 1580l-73 -48l-314 121l-313 -119l-85 58l444 289z" />
    <glyph glyph-name="uni1EBE" unicode="&#x1ebe;" horiz-adv-x="1097" 
d="M1109 1423l-70 -321q-26 94 -129 112q-24 7 -190 5l-82 -365h135q115 0 172 18l-72 -327q-14 65 -41.5 81.5t-119.5 16.5h-121l-88 -399q100 -43 235 -43q121 0 192.5 24.5t174.5 102.5l-168 -328h-977q74 57 107.5 118.5t62.5 194.5l176 797q27 121 27 178q0 53 -58 135
h834zM1126 2063l-520 -208l-115 45l495 327zM1139 1580l-73 -48l-314 121l-313 -119l-85 58l444 289z" />
    <glyph glyph-name="uni1EC2" unicode="&#x1ec2;" horiz-adv-x="1097" 
d="M1109 1423l-70 -321q-26 94 -129 112q-24 7 -190 5l-82 -365h135q115 0 172 18l-72 -327q-14 65 -41.5 81.5t-119.5 16.5h-121l-88 -399q100 -43 235 -43q121 0 192.5 24.5t174.5 102.5l-168 -328h-977q74 57 107.5 118.5t62.5 194.5l176 797q27 121 27 178q0 53 -58 135
h834zM1361 2015q-13 -65 -65 -111q-28 -25 -92.5 -64t-71.5 -73q-1 -5 0 -18h-133q2 22 4 29q11 58 82 114q77 59 86 105q8 37 -17.5 62t-72.5 25q-48 0 -111 -34l65 121q57 20 132 20q101 0 155.5 -49t38.5 -127zM1139 1580l-73 -48l-314 121l-313 -119l-85 58l444 289z
" />
    <glyph glyph-name="uni1EC4" unicode="&#x1ec4;" horiz-adv-x="1097" 
d="M1109 1423l-70 -321q-26 94 -129 112q-24 7 -190 5l-82 -365h135q115 0 172 18l-72 -327q-14 65 -41.5 81.5t-119.5 16.5h-121l-88 -399q100 -43 235 -43q121 0 192.5 24.5t174.5 102.5l-168 -328h-977q74 57 107.5 118.5t62.5 194.5l176 797q27 121 27 178q0 53 -58 135
h834zM1369 2132l-12 -24q-66 -132 -122 -180.5t-137 -48.5q-54 0 -221 39q-118 28 -192 28q-115 0 -205 -63q68 129 112 177q63 70 157 70q64 0 223 -40q120 -30 191 -30q116 0 206 72zM1139 1580l-73 -48l-314 121l-313 -119l-85 58l444 289z" />
    <glyph glyph-name="uni1EC6" unicode="&#x1ec6;" horiz-adv-x="1097" 
d="M1109 1423l-70 -321q-26 94 -129 112q-24 7 -190 5l-82 -365h135q115 0 172 18l-72 -327q-14 65 -41.5 81.5t-119.5 16.5h-121l-88 -399q100 -43 235 -43q121 0 192.5 24.5t174.5 102.5l-168 -328h-977q74 57 107.5 118.5t62.5 194.5l176 797q27 121 27 178q0 53 -58 135
h834zM593 -272q0 -80 -48.5 -130t-125.5 -50q-152 0 -152 153q0 78 50 125t132 47q144 0 144 -145zM1139 1580l-73 -48l-314 121l-313 -119l-85 58l444 289z" />
    <glyph glyph-name="Igrave" unicode="&#xcc;" horiz-adv-x="718" 
d="M865 1423q-74 -55 -106.5 -116.5t-63.5 -196.5l-176 -797q-27 -120 -27 -178q0 -55 58 -135h-590q74 59 107.5 119.5t62.5 193.5l176 797q27 121 27 178q0 53 -58 135h590zM888 1594l-96 -60l-518 211l136 174z" />
    <glyph glyph-name="Iacute" unicode="&#xcd;" horiz-adv-x="718" 
d="M865 1423q-74 -55 -106.5 -116.5t-63.5 -196.5l-176 -797q-27 -120 -27 -178q0 -55 58 -135h-590q74 59 107.5 119.5t62.5 193.5l176 797q27 121 27 178q0 53 -58 135h590zM989 1746l-520 -208l-115 45l495 327z" />
    <glyph glyph-name="uni1EC8" unicode="&#x1ec8;" horiz-adv-x="718" 
d="M865 1423q-74 -55 -106.5 -116.5t-63.5 -196.5l-176 -797q-27 -120 -27 -178q0 -55 58 -135h-590q74 59 107.5 119.5t62.5 193.5l176 797q27 121 27 178q0 53 -58 135h590zM890 1769q-13 -65 -65 -111q-28 -25 -92.5 -64t-71.5 -73q-1 -5 0 -18h-133q2 22 4 29
q11 58 82 114q77 59 86 105q8 37 -17.5 62t-72.5 25q-48 0 -111 -34l65 121q57 20 132 20q101 0 155.5 -49t38.5 -127z" />
    <glyph glyph-name="Itilde" unicode="&#x128;" horiz-adv-x="718" 
d="M865 1423q-74 -55 -106.5 -116.5t-63.5 -196.5l-176 -797q-27 -120 -27 -178q0 -55 58 -135h-590q74 59 107.5 119.5t62.5 193.5l176 797q27 121 27 178q0 53 -58 135h590zM1126 1824l-12 -24q-66 -132 -122 -180.5t-137 -48.5q-54 0 -221 39q-118 28 -192 28
q-115 0 -205 -63q68 129 112 177q63 70 157 70q64 0 223 -40q120 -30 191 -30q116 0 206 72z" />
    <glyph glyph-name="uni1ECA" unicode="&#x1eca;" horiz-adv-x="718" 
d="M865 1423q-74 -55 -106.5 -116.5t-63.5 -196.5l-176 -797q-27 -120 -27 -178q0 -55 58 -135h-590q74 59 107.5 119.5t62.5 193.5l176 797q27 121 27 178q0 53 -58 135h590zM393 -272q0 -80 -48.5 -130t-125.5 -50q-152 0 -152 153q0 78 50 125t132 47q144 0 144 -145z
" />
    <glyph glyph-name="Ograve" unicode="&#xd2;" horiz-adv-x="1490" 
d="M1495 879q0 -408 -225.5 -658t-594.5 -250q-274 0 -421.5 148.5t-147.5 427.5q0 192 62.5 370.5t170.5 299.5q211 235 590 235q277 0 430 -156q136 -137 136 -417zM1081 940q0 322 -197 322q-155 0 -264 -252q-100 -232 -100 -527q0 -149 53 -235t143 -86q168 0 273 268
q92 238 92 510zM1221 1594l-95 -60l-519 211l137 174z" />
    <glyph glyph-name="Oacute" unicode="&#xd3;" horiz-adv-x="1490" 
d="M1495 879q0 -408 -225.5 -658t-594.5 -250q-274 0 -421.5 148.5t-147.5 427.5q0 192 62.5 370.5t170.5 299.5q211 235 590 235q277 0 430 -156q136 -137 136 -417zM1081 940q0 322 -197 322q-155 0 -264 -252q-100 -232 -100 -527q0 -149 53 -235t143 -86q168 0 273 268
q92 238 92 510zM1249 1746l-520 -208l-115 45l495 327z" />
    <glyph glyph-name="uni1ECE" unicode="&#x1ece;" horiz-adv-x="1490" 
d="M1495 879q0 -408 -225.5 -658t-594.5 -250q-274 0 -421.5 148.5t-147.5 427.5q0 192 62.5 370.5t170.5 299.5q211 235 590 235q277 0 430 -156q136 -137 136 -417zM1081 940q0 322 -197 322q-155 0 -264 -252q-100 -232 -100 -527q0 -149 53 -235t143 -86q168 0 273 268
q92 238 92 510zM1242 1769q-13 -65 -65 -111q-28 -25 -92 -64t-71 -73q-1 -5 -1 -18h-133q3 22 4 29q12 58 83 114q77 59 86 105q7 37 -18.5 62t-72.5 25q-48 0 -111 -34l66 121q57 20 132 20q101 0 155 -49t38 -127z" />
    <glyph glyph-name="Otilde" unicode="&#xd5;" horiz-adv-x="1490" 
d="M1495 879q0 -408 -225.5 -658t-594.5 -250q-274 0 -421.5 148.5t-147.5 427.5q0 192 62.5 370.5t170.5 299.5q211 235 590 235q277 0 430 -156q136 -137 136 -417zM1081 940q0 322 -197 322q-155 0 -264 -252q-100 -232 -100 -527q0 -149 53 -235t143 -86q168 0 273 268
q92 238 92 510zM1496 1824l-12 -24q-66 -132 -121.5 -180.5t-137.5 -48.5q-54 0 -221 39q-117 28 -191 28q-116 0 -205 -63q67 129 111 177q64 70 158 70q63 0 223 -40q119 -30 191 -30q115 0 205 72z" />
    <glyph glyph-name="uni1ECC" unicode="&#x1ecc;" horiz-adv-x="1490" 
d="M1495 879q0 -408 -225.5 -658t-594.5 -250q-274 0 -421.5 148.5t-147.5 427.5q0 192 62.5 370.5t170.5 299.5q211 235 590 235q277 0 430 -156q136 -137 136 -417zM1081 940q0 322 -197 322q-155 0 -264 -252q-100 -232 -100 -527q0 -149 53 -235t143 -86q168 0 273 268
q92 238 92 510zM799 -272q0 -80 -48 -130t-126 -50q-151 0 -151 153q0 78 50 125t132 47q143 0 143 -145z" />
    <glyph glyph-name="Ocircumflex" unicode="&#xd4;" horiz-adv-x="1490" 
d="M1495 879q0 -408 -225.5 -658t-594.5 -250q-274 0 -421.5 148.5t-147.5 427.5q0 192 62.5 370.5t170.5 299.5q211 235 590 235q277 0 430 -156q136 -137 136 -417zM1081 940q0 322 -197 322q-155 0 -264 -252q-100 -232 -100 -527q0 -149 53 -235t143 -86q168 0 273 268
q92 238 92 510zM1373 1580l-74 -48l-314 121l-312 -119l-85 58l443 289z" />
    <glyph glyph-name="uni1ED2" unicode="&#x1ed2;" horiz-adv-x="1490" 
d="M1495 879q0 -408 -225.5 -658t-594.5 -250q-274 0 -421.5 148.5t-147.5 427.5q0 192 62.5 370.5t170.5 299.5q211 235 590 235q277 0 430 -156q136 -137 136 -417zM1081 940q0 322 -197 322q-155 0 -264 -252q-100 -232 -100 -527q0 -149 53 -235t143 -86q168 0 273 268
q92 238 92 510zM1364 1893l-95 -60l-519 211l137 174zM1373 1580l-74 -48l-314 121l-312 -119l-85 58l443 289z" />
    <glyph glyph-name="uni1ED0" unicode="&#x1ed0;" horiz-adv-x="1490" 
d="M1495 879q0 -408 -225.5 -658t-594.5 -250q-274 0 -421.5 148.5t-147.5 427.5q0 192 62.5 370.5t170.5 299.5q211 235 590 235q277 0 430 -156q136 -137 136 -417zM1081 940q0 322 -197 322q-155 0 -264 -252q-100 -232 -100 -527q0 -149 53 -235t143 -86q168 0 273 268
q92 238 92 510zM1313 2045l-520 -208l-115 45l495 327zM1373 1580l-74 -48l-314 121l-312 -119l-85 58l443 289z" />
    <glyph glyph-name="uni1ED4" unicode="&#x1ed4;" horiz-adv-x="1490" 
d="M1495 879q0 -408 -225.5 -658t-594.5 -250q-274 0 -421.5 148.5t-147.5 427.5q0 192 62.5 370.5t170.5 299.5q211 235 590 235q277 0 430 -156q136 -137 136 -417zM1081 940q0 322 -197 322q-155 0 -264 -252q-100 -232 -100 -527q0 -149 53 -235t143 -86q168 0 273 268
q92 238 92 510zM1594 2022q-13 -65 -65 -111q-28 -25 -92 -64t-71 -73q-1 -5 -1 -18h-133q3 22 4 29q12 58 83 114q77 59 86 105q7 37 -18.5 62t-72.5 25q-48 0 -111 -34l66 121q57 20 132 20q101 0 155 -49t38 -127zM1373 1580l-74 -48l-314 121l-312 -119l-85 58l443 289z
" />
    <glyph glyph-name="uni1ED6" unicode="&#x1ed6;" horiz-adv-x="1490" 
d="M1495 879q0 -408 -225.5 -658t-594.5 -250q-274 0 -421.5 148.5t-147.5 427.5q0 192 62.5 370.5t170.5 299.5q211 235 590 235q277 0 430 -156q136 -137 136 -417zM1081 940q0 322 -197 322q-155 0 -264 -252q-100 -232 -100 -527q0 -149 53 -235t143 -86q168 0 273 268
q92 238 92 510zM1586 2132l-12 -24q-66 -132 -121.5 -180.5t-137.5 -48.5q-54 0 -221 39q-117 28 -191 28q-116 0 -205 -63q67 129 111 177q64 70 158 70q63 0 223 -40q119 -30 191 -30q115 0 205 72zM1373 1580l-74 -48l-314 121l-312 -119l-85 58l443 289z" />
    <glyph glyph-name="uni1ED8" unicode="&#x1ed8;" horiz-adv-x="1490" 
d="M1495 879q0 -408 -225.5 -658t-594.5 -250q-274 0 -421.5 148.5t-147.5 427.5q0 192 62.5 370.5t170.5 299.5q211 235 590 235q277 0 430 -156q136 -137 136 -417zM1081 940q0 322 -197 322q-155 0 -264 -252q-100 -232 -100 -527q0 -149 53 -235t143 -86q168 0 273 268
q92 238 92 510zM799 -272q0 -80 -48 -130t-126 -50q-151 0 -151 153q0 78 50 125t132 47q143 0 143 -145zM1373 1580l-74 -48l-314 121l-312 -119l-85 58l443 289z" />
    <glyph glyph-name="Ugrave" unicode="&#xd9;" horiz-adv-x="1482" 
d="M1630 1423q-74 -55 -107 -116.5t-63 -196.5l-176 -797q-27 -120 -27 -178q0 -57 57 -135h-514l49 135q-102 -96 -185 -130t-214 -34q-158 0 -246 72q-98 80 -98 207q0 57 27 178l151 682q27 121 27 178q0 55 -58 135h590q-73 -55 -106 -116.5t-64 -196.5l-118 -530
q-39 -174 -39 -244q0 -139 153 -139q146 0 207 116q33 62 61 195l134 602q26 121 26 178q0 55 -57 135h590zM1221 1594l-95 -60l-519 211l137 174z" />
    <glyph glyph-name="Uacute" unicode="&#xda;" horiz-adv-x="1482" 
d="M1630 1423q-74 -55 -107 -116.5t-63 -196.5l-176 -797q-27 -120 -27 -178q0 -57 57 -135h-514l49 135q-102 -96 -185 -130t-214 -34q-158 0 -246 72q-98 80 -98 207q0 57 27 178l151 682q27 121 27 178q0 55 -58 135h590q-73 -55 -106 -116.5t-64 -196.5l-118 -530
q-39 -174 -39 -244q0 -139 153 -139q146 0 207 116q33 62 61 195l134 602q26 121 26 178q0 55 -57 135h590zM1312 1746l-520 -208l-115 45l495 327z" />
    <glyph glyph-name="uni1EE6" unicode="&#x1ee6;" horiz-adv-x="1482" 
d="M1630 1423q-74 -55 -107 -116.5t-63 -196.5l-176 -797q-27 -120 -27 -178q0 -57 57 -135h-514l49 135q-102 -96 -185 -130t-214 -34q-158 0 -246 72q-98 80 -98 207q0 57 27 178l151 682q27 121 27 178q0 55 -58 135h590q-73 -55 -106 -116.5t-64 -196.5l-118 -530
q-39 -174 -39 -244q0 -139 153 -139q146 0 207 116q33 62 61 195l134 602q26 121 26 178q0 55 -57 135h590zM1260 1769q-13 -65 -65 -111q-28 -25 -92 -64t-71 -73q-1 -5 -1 -18h-133q3 22 4 29q12 58 83 114q77 59 86 105q7 37 -18.5 62t-72.5 25q-48 0 -111 -34l66 121
q57 20 132 20q101 0 155 -49t38 -127z" />
    <glyph glyph-name="Utilde" unicode="&#x168;" horiz-adv-x="1482" 
d="M1630 1423q-74 -55 -107 -116.5t-63 -196.5l-176 -797q-27 -120 -27 -178q0 -57 57 -135h-514l49 135q-102 -96 -185 -130t-214 -34q-158 0 -246 72q-98 80 -98 207q0 57 27 178l151 682q27 121 27 178q0 55 -58 135h590q-73 -55 -106 -116.5t-64 -196.5l-118 -530
q-39 -174 -39 -244q0 -139 153 -139q146 0 207 116q33 62 61 195l134 602q26 121 26 178q0 55 -57 135h590zM1486 1824l-12 -24q-66 -132 -121.5 -180.5t-137.5 -48.5q-54 0 -221 39q-117 28 -191 28q-116 0 -205 -63q67 129 111 177q64 70 158 70q63 0 223 -40
q119 -30 191 -30q115 0 205 72z" />
    <glyph glyph-name="uni1EE4" unicode="&#x1ee4;" horiz-adv-x="1482" 
d="M1630 1423q-74 -55 -107 -116.5t-63 -196.5l-176 -797q-27 -120 -27 -178q0 -57 57 -135h-514l49 135q-102 -96 -185 -130t-214 -34q-158 0 -246 72q-98 80 -98 207q0 57 27 178l151 682q27 121 27 178q0 55 -58 135h590q-73 -55 -106 -116.5t-64 -196.5l-118 -530
q-39 -174 -39 -244q0 -139 153 -139q146 0 207 116q33 62 61 195l134 602q26 121 26 178q0 55 -57 135h590zM754 -272q0 -80 -48 -130t-126 -50q-151 0 -151 153q0 78 50 125t132 47q143 0 143 -145z" />
    <glyph glyph-name="Uhorn" unicode="&#x1af;" horiz-adv-x="1482" 
d="M1848 1453q-31 -58 -110.5 -126.5t-174.5 -120.5q-61 -32 -88.5 -36.5t-72.5 10.5q-30 10 -80 31q191 80 287 164q-7 -1 -18 2q-60 20 -80 79t13 122q36 69 109.5 101t142.5 11q70 -24 91 -91.5t-19 -145.5zM1284 313q-27 -120 -27 -178q0 -57 58 -135h-514l49 135
q-102 -96 -185 -130t-214 -34q-158 0 -246 72q-99 80 -99 207q0 57 27 178l152 682q26 121 26 178q0 55 -57 135h590q-74 -55 -106.5 -116.5t-63.5 -196.5l-119 -530q-39 -174 -39 -244q0 -139 154 -139q145 0 207 116q32 62 61 195l133 602q27 121 27 178q0 55 -58 135h494
l-66 -278q-4 -17 -8 -35l-3 -12l-2 -10z" />
    <glyph glyph-name="uni1EEA" unicode="&#x1eea;" horiz-adv-x="1482" 
d="M1222 1594l-96 -60l-518 211l136 174zM1527 1423q-10 15 -16 33q-20 59 13 122q36 69 109.5 101t142.5 11q70 -24 91 -91.5t-19 -145.5q-31 -58 -110.5 -126.5t-174.5 -120.5q-61 -32 -88 -36l-1 -1l-6 -24q-4 -17 -8 -35l-3 -12l-2 -10l-171 -775q-27 -120 -27 -178
q0 -57 58 -135h-514l49 135q-102 -96 -185 -130t-214 -34q-158 0 -246 72q-99 80 -99 207q0 57 27 178l152 682q26 121 26 178q0 55 -57 135h590q-74 -55 -106.5 -116.5t-63.5 -196.5l-119 -530q-39 -174 -39 -244q0 -139 154 -139q145 0 207 116q32 62 61 195l133 602
q27 121 27 178q0 55 -58 135h487zM1505 1301q61 37 104 74q-7 -1 -18 2q-37 12 -59 39z" />
    <glyph glyph-name="uni1EE8" unicode="&#x1ee8;" horiz-adv-x="1482" 
d="M1313 1746l-520 -208l-115 45l495 327zM1527 1423q-10 15 -16 33q-20 59 13 122q36 69 109.5 101t142.5 11q70 -24 91 -91.5t-19 -145.5q-31 -58 -110.5 -126.5t-174.5 -120.5q-61 -32 -88 -36l-1 -1l-6 -24q-4 -17 -8 -35l-3 -12l-2 -10l-171 -775q-27 -120 -27 -178
q0 -57 58 -135h-514l49 135q-102 -96 -185 -130t-214 -34q-158 0 -246 72q-99 80 -99 207q0 57 27 178l152 682q26 121 26 178q0 55 -57 135h590q-74 -55 -106.5 -116.5t-63.5 -196.5l-119 -530q-39 -174 -39 -244q0 -139 154 -139q145 0 207 116q32 62 61 195l133 602
q27 121 27 178q0 55 -58 135h487zM1505 1301q61 37 104 74q-7 -1 -18 2q-37 12 -59 39z" />
    <glyph glyph-name="uni1EEC" unicode="&#x1eec;" horiz-adv-x="1482" 
d="M1261 1769q-13 -65 -65 -111q-28 -25 -92.5 -64t-71.5 -73q-1 -5 0 -18h-133q2 22 4 29q11 58 82 114q77 59 86 105q8 37 -17.5 62t-72.5 25q-48 0 -111 -34l65 121q57 20 132 20q101 0 155.5 -49t38.5 -127zM1527 1423q-10 15 -16 33q-20 59 13 122q36 69 109.5 101
t142.5 11q70 -24 91 -91.5t-19 -145.5q-31 -58 -110.5 -126.5t-174.5 -120.5q-61 -32 -88 -36l-1 -1l-6 -24q-4 -17 -8 -35l-3 -12l-2 -10l-171 -775q-27 -120 -27 -178q0 -57 58 -135h-514l49 135q-102 -96 -185 -130t-214 -34q-158 0 -246 72q-99 80 -99 207q0 57 27 178
l152 682q26 121 26 178q0 55 -57 135h590q-74 -55 -106.5 -116.5t-63.5 -196.5l-119 -530q-39 -174 -39 -244q0 -139 154 -139q145 0 207 116q32 62 61 195l133 602q27 121 27 178q0 55 -58 135h487zM1505 1301q61 37 104 74q-7 -1 -18 2q-37 12 -59 39z" />
    <glyph glyph-name="uni1EEE" unicode="&#x1eee;" horiz-adv-x="1482" 
d="M1487 1824l-12 -24q-66 -132 -122 -180.5t-137 -48.5q-54 0 -221 39q-118 28 -192 28q-115 0 -205 -63q68 129 112 177q64 70 157 70q64 0 223 -40q120 -30 191 -30q116 0 206 72zM1527 1423q-10 15 -16 33q-20 59 13 122q36 69 109.5 101t142.5 11q70 -24 91 -91.5
t-19 -145.5q-31 -58 -110.5 -126.5t-174.5 -120.5q-61 -32 -88 -36l-1 -1l-6 -24q-4 -17 -8 -35l-3 -12l-2 -10l-171 -775q-27 -120 -27 -178q0 -57 58 -135h-514l49 135q-102 -96 -185 -130t-214 -34q-158 0 -246 72q-99 80 -99 207q0 57 27 178l152 682q26 121 26 178
q0 55 -57 135h590q-74 -55 -106.5 -116.5t-63.5 -196.5l-119 -530q-39 -174 -39 -244q0 -139 154 -139q145 0 207 116q32 62 61 195l133 602q27 121 27 178q0 55 -58 135h487zM1505 1301q61 37 104 74q-7 -1 -18 2q-37 12 -59 39z" />
    <glyph glyph-name="uni1EF0" unicode="&#x1ef0;" horiz-adv-x="1482" 
d="M755 -272q0 -80 -48 -130t-126 -50q-152 0 -152 153q0 78 50 125t132 47q144 0 144 -145zM1527 1423q-10 15 -16 33q-20 59 13 122q36 69 109.5 101t142.5 11q70 -24 91 -91.5t-19 -145.5q-31 -58 -110.5 -126.5t-174.5 -120.5q-61 -32 -88 -36l-1 -1l-6 -24
q-4 -17 -8 -35l-3 -12l-2 -10l-171 -775q-27 -120 -27 -178q0 -57 58 -135h-514l49 135q-102 -96 -185 -130t-214 -34q-158 0 -246 72q-99 80 -99 207q0 57 27 178l152 682q26 121 26 178q0 55 -57 135h590q-74 -55 -106.5 -116.5t-63.5 -196.5l-119 -530q-39 -174 -39 -244
q0 -139 154 -139q145 0 207 116q32 62 61 195l133 602q27 121 27 178q0 55 -58 135h487zM1505 1301q61 37 104 74q-7 -1 -18 2q-37 12 -59 39z" />
    <glyph glyph-name="Ohorn" unicode="&#x1a0;" horiz-adv-x="1490" 
d="M1495 879q0 -408 -225.5 -658t-594.5 -250q-274 0 -421.5 148.5t-147.5 427.5q0 192 62.5 370.5t170.5 299.5q211 235 590 235q277 0 430 -156q136 -137 136 -417zM1081 940q0 322 -197 322q-155 0 -264 -252q-100 -232 -100 -527q0 -149 53 -235t143 -86q168 0 273 268
q92 238 92 510zM1693 1453q-30 -58 -110 -126.5t-174 -120.5q-62 -32 -89 -36.5t-72 10.5q-30 10 -80 31q191 80 287 164q-8 -1 -18 2q-60 20 -80 79t12 122q37 69 110.5 101t142.5 11q70 -24 91 -91.5t-20 -145.5z" />
    <glyph glyph-name="uni1EDC" unicode="&#x1edc;" horiz-adv-x="1490" 
d="M1081 940q0 322 -196 322q-156 0 -264 -252q-101 -232 -101 -527q0 -149 53.5 -235t143.5 -86q168 0 272 268q92 238 92 510zM1222 1594l-96 -60l-518 211l136 174zM1422 1213q73 -128 73 -334q0 -408 -225.5 -658t-593.5 -250q-275 0 -422.5 148.5t-147.5 427.5
q0 192 62.5 370.5t171.5 299.5q211 235 590 235q270 0 423 -149q60 35 102 72q-7 -1 -18 2q-60 20 -80 79t13 122q36 69 109.5 101t142.5 11q70 -24 91 -91.5t-19 -145.5q-31 -58 -110 -126q-74 -64 -162 -114z" />
    <glyph glyph-name="uni1EDA" unicode="&#x1eda;" horiz-adv-x="1490" 
d="M1081 940q0 322 -196 322q-156 0 -264 -252q-101 -232 -101 -527q0 -149 53.5 -235t143.5 -86q168 0 272 268q92 238 92 510zM1250 1746l-520 -208l-115 45l495 327zM1422 1213q73 -128 73 -334q0 -408 -225.5 -658t-593.5 -250q-275 0 -422.5 148.5t-147.5 427.5
q0 192 62.5 370.5t171.5 299.5q211 235 590 235q270 0 423 -149q60 35 102 72q-7 -1 -18 2q-60 20 -80 79t13 122q36 69 109.5 101t142.5 11q70 -24 91 -91.5t-19 -145.5q-31 -58 -110 -126q-74 -64 -162 -114z" />
    <glyph glyph-name="uni1EDE" unicode="&#x1ede;" horiz-adv-x="1490" 
d="M1081 940q0 322 -196 322q-156 0 -264 -252q-101 -232 -101 -527q0 -149 53.5 -235t143.5 -86q168 0 272 268q92 238 92 510zM1243 1769q-13 -65 -65 -111q-28 -25 -92.5 -64t-71.5 -73q-1 -5 0 -18h-133q2 22 4 29q11 58 82 114q77 59 86 105q8 37 -17.5 62t-72.5 25
q-48 0 -111 -34l65 121q57 20 132 20q101 0 155.5 -49t38.5 -127zM1422 1213q73 -128 73 -334q0 -408 -225.5 -658t-593.5 -250q-275 0 -422.5 148.5t-147.5 427.5q0 192 62.5 370.5t171.5 299.5q211 235 590 235q270 0 423 -149q60 35 102 72q-7 -1 -18 2q-60 20 -80 79
t13 122q36 69 109.5 101t142.5 11q70 -24 91 -91.5t-19 -145.5q-31 -58 -110 -126q-74 -64 -162 -114z" />
    <glyph glyph-name="uni1EE0" unicode="&#x1ee0;" horiz-adv-x="1490" 
d="M1081 940q0 322 -196 322q-156 0 -264 -252q-101 -232 -101 -527q0 -149 53.5 -235t143.5 -86q168 0 272 268q92 238 92 510zM1497 1824l-12 -24q-66 -132 -122 -180.5t-137 -48.5q-54 0 -221 39q-118 28 -192 28q-115 0 -205 -63q68 129 112 177q64 70 157 70
q64 0 223 -40q120 -30 191 -30q116 0 206 72zM1422 1213q73 -128 73 -334q0 -408 -225.5 -658t-593.5 -250q-275 0 -422.5 148.5t-147.5 427.5q0 192 62.5 370.5t171.5 299.5q211 235 590 235q270 0 423 -149q60 35 102 72q-7 -1 -18 2q-60 20 -80 79t13 122
q36 69 109.5 101t142.5 11q70 -24 91 -91.5t-19 -145.5q-31 -58 -110 -126q-74 -64 -162 -114z" />
    <glyph glyph-name="uni1EE2" unicode="&#x1ee2;" horiz-adv-x="1490" 
d="M1081 940q0 322 -196 322q-156 0 -264 -252q-101 -232 -101 -527q0 -149 53.5 -235t143.5 -86q168 0 272 268q92 238 92 510zM800 -272q0 -80 -48 -130t-126 -50q-152 0 -152 153q0 78 50 125t132 47q144 0 144 -145zM1422 1213q73 -128 73 -334q0 -408 -225.5 -658
t-593.5 -250q-275 0 -422.5 148.5t-147.5 427.5q0 192 62.5 370.5t171.5 299.5q211 235 590 235q270 0 423 -149q60 35 102 72q-7 -1 -18 2q-60 20 -80 79t13 122q36 69 109.5 101t142.5 11q70 -24 91 -91.5t-19 -145.5q-31 -58 -110 -126q-74 -64 -162 -114z" />
    <glyph glyph-name="Ygrave" unicode="&#x1ef2;" horiz-adv-x="1245" 
d="M1447 1423l-131 -170l-442 -612l-74 -328q-25 -108 -25 -178q0 -57 56 -135h-576q76 57 110 118.5t62 194.5l72 326q-45 178 -165 421t-218 353q123 39 215 39q127 0 205 -52t141 -183q14 -31 137 -330l240 356q51 76 51 113q0 33 -41 67h383zM1112 1594l-95 -60
l-519 211l137 174z" />
    <glyph glyph-name="Yacute" unicode="&#xdd;" horiz-adv-x="1245" 
d="M1447 1423l-131 -170l-442 -612l-74 -328q-25 -108 -25 -178q0 -57 56 -135h-576q76 57 110 118.5t62 194.5l72 326q-45 178 -165 421t-218 353q123 39 215 39q127 0 205 -52t141 -183q14 -31 137 -330l240 356q51 76 51 113q0 33 -41 67h383zM1221 1746l-520 -208
l-115 45l495 327z" />
    <glyph glyph-name="uni1EF6" unicode="&#x1ef6;" horiz-adv-x="1245" 
d="M1447 1423l-131 -170l-442 -612l-74 -328q-25 -108 -25 -178q0 -57 56 -135h-576q76 57 110 118.5t62 194.5l72 326q-45 178 -165 421t-218 353q123 39 215 39q127 0 205 -52t141 -183q14 -31 137 -330l240 356q51 76 51 113q0 33 -41 67h383zM1169 1769
q-13 -65 -65 -111q-28 -25 -92.5 -64t-70.5 -73q-1 -5 -1 -18h-133q2 22 4 29q11 58 83 114q76 59 86 105q7 37 -18.5 62t-72.5 25q-48 0 -111 -34l65 121q57 20 132 20q101 0 155.5 -49t38.5 -127z" />
    <glyph glyph-name="uni1EF8" unicode="&#x1ef8;" horiz-adv-x="1245" 
d="M1447 1423l-131 -170l-442 -612l-74 -328q-25 -108 -25 -178q0 -57 56 -135h-576q76 57 110 118.5t62 194.5l72 326q-45 178 -165 421t-218 353q123 39 215 39q127 0 205 -52t141 -183q14 -31 137 -330l240 356q51 76 51 113q0 33 -41 67h383zM1378 1824l-12 -24
q-66 -132 -121.5 -180.5t-137.5 -48.5q-54 0 -221 39q-118 28 -191 28q-116 0 -206 -63q68 129 112 177q64 70 157 70q64 0 223 -40q120 -30 192 -30q115 0 205 72z" />
    <glyph glyph-name="uni1EF4" unicode="&#x1ef4;" horiz-adv-x="1245" 
d="M1447 1423l-131 -170l-442 -612l-74 -328q-25 -108 -25 -178q0 -57 56 -135h-576q76 57 110 118.5t62 194.5l72 326q-45 178 -165 421t-218 353q123 39 215 39q127 0 205 -52t141 -183q14 -31 137 -330l240 356q51 76 51 113q0 33 -41 67h383zM699 -272q0 -80 -48 -130
t-126 -50q-152 0 -152 153q0 78 50.5 125t132.5 47q143 0 143 -145z" />
    <glyph glyph-name="agrave" unicode="&#xe0;" horiz-adv-x="1222" 
d="M1206 1024l-153 -694q-13 -56 -13 -86q0 -64 68 -64q45 0 94 19l-145 -187q-92 -41 -176 -41q-215 0 -215 189q0 51 26 170l103 461q-62 34 -103 34q-90 0 -151 -94q-113 -174 -113 -381q0 -82 41 -131t113 -49q22 0 39 4l-105 -184q-74 -17 -125 -17q-162 0 -255 96.5
t-93 264.5q0 143 61.5 283.5t163.5 234.5q170 156 459 156q70 0 225 -21q31 -4 68 -4q96 0 186 41zM1031 1123l-95 -60l-519 211l137 174z" />
    <glyph glyph-name="aacute" unicode="&#xe1;" horiz-adv-x="1222" 
d="M1206 1024l-153 -694q-13 -56 -13 -86q0 -64 68 -64q45 0 94 19l-145 -187q-92 -41 -176 -41q-215 0 -215 189q0 51 26 170l103 461q-62 34 -103 34q-90 0 -151 -94q-113 -174 -113 -381q0 -82 41 -131t113 -49q22 0 39 4l-105 -184q-74 -17 -125 -17q-162 0 -255 96.5
t-93 264.5q0 143 61.5 283.5t163.5 234.5q170 156 459 156q70 0 225 -21q31 -4 68 -4q96 0 186 41zM1194 1275l-520 -208l-115 45l495 327z" />
    <glyph glyph-name="uni1EA3" unicode="&#x1ea3;" horiz-adv-x="1222" 
d="M1206 1024l-153 -694q-13 -56 -13 -86q0 -64 68 -64q45 0 94 19l-145 -187q-92 -41 -176 -41q-215 0 -215 189q0 51 26 170l103 461q-62 34 -103 34q-90 0 -151 -94q-113 -174 -113 -381q0 -82 41 -131t113 -49q22 0 39 4l-105 -184q-74 -17 -125 -17q-162 0 -255 96.5
t-93 264.5q0 143 61.5 283.5t163.5 234.5q170 156 459 156q70 0 225 -21q31 -4 68 -4q96 0 186 41zM1078 1363q-13 -65 -65 -111q-28 -25 -92.5 -64t-70.5 -73q-1 -5 -1 -18h-133q2 22 4 29q11 58 83 114q76 59 86 105q7 37 -18.5 62t-72.5 25q-48 0 -111 -34l65 121
q57 20 132 20q101 0 155.5 -49t38.5 -127z" />
    <glyph glyph-name="atilde" unicode="&#xe3;" horiz-adv-x="1222" 
d="M1200 1417q-63 -121 -106 -178q-62 -82 -170 -82q-47 0 -168 37q-109 33 -170 33q-101 0 -197 -64q72 131 115 180q63 72 157 72q52 0 183 -41q98 -31 155 -31q107 0 201 74zM1206 1024l-153 -694q-13 -56 -13 -86q0 -64 68 -64q45 0 94 19l-145 -187q-92 -41 -176 -41
q-215 0 -215 189q0 51 26 170l103 461q-62 34 -103 34q-90 0 -151 -94q-113 -174 -113 -381q0 -82 41 -131t113 -49q22 0 39 4l-105 -184q-74 -17 -125 -17q-162 0 -255 96.5t-93 264.5q0 143 61.5 283.5t163.5 234.5q170 156 459 156q70 0 225 -21q31 -4 68 -4q96 0 186 41
z" />
    <glyph glyph-name="uni1EA1" unicode="&#x1ea1;" horiz-adv-x="1222" 
d="M1206 1024l-153 -694q-13 -56 -13 -86q0 -64 68 -64q45 0 94 19l-145 -187q-92 -41 -176 -41q-215 0 -215 189q0 51 26 170l103 461q-62 34 -103 34q-90 0 -151 -94q-113 -174 -113 -381q0 -82 41 -131t113 -49q22 0 39 4l-105 -184q-74 -17 -125 -17q-162 0 -255 96.5
t-93 264.5q0 143 61.5 283.5t163.5 234.5q170 156 459 156q70 0 225 -21q31 -4 68 -4q96 0 186 41zM699 -272q0 -80 -48 -130t-126 -50q-152 0 -152 153q0 78 50.5 125t132.5 47q143 0 143 -145z" />
    <glyph glyph-name="acircumflex" unicode="&#xe2;" horiz-adv-x="1222" 
d="M1128 1157l-86 -49l-262 162l-274 -160l-96 57l421 344zM1206 1024l-153 -694q-13 -56 -13 -86q0 -64 68 -64q45 0 94 19l-145 -187q-92 -41 -176 -41q-215 0 -215 189q0 51 26 170l103 461q-62 34 -103 34q-90 0 -151 -94q-113 -174 -113 -381q0 -82 41 -131t113 -49
q22 0 39 4l-105 -184q-74 -17 -125 -17q-162 0 -255 96.5t-93 264.5q0 143 61.5 283.5t163.5 234.5q170 156 459 156q70 0 225 -21q31 -4 68 -4q96 0 186 41z" />
    <glyph glyph-name="uni1EA7" unicode="&#x1ea7;" horiz-adv-x="1222" 
d="M1206 1024l-153 -694q-13 -56 -13 -86q0 -64 68 -64q45 0 94 19l-145 -187q-92 -41 -176 -41q-215 0 -215 189q0 51 26 170l103 461q-62 34 -103 34q-90 0 -151 -94q-113 -174 -113 -381q0 -82 41 -131t113 -49q22 0 39 4l-105 -184q-74 -17 -125 -17q-162 0 -255 96.5
t-93 264.5q0 143 61.5 283.5t163.5 234.5q170 156 459 156q70 0 225 -21q31 -4 68 -4q96 0 186 41zM1167 1512l-95 -60l-519 211l137 174zM1128 1157l-86 -49l-262 162l-274 -160l-96 57l421 344z" />
    <glyph glyph-name="uni1EA5" unicode="&#x1ea5;" horiz-adv-x="1222" 
d="M1206 1024l-153 -694q-13 -56 -13 -86q0 -64 68 -64q45 0 94 19l-145 -187q-92 -41 -176 -41q-215 0 -215 189q0 51 26 170l103 461q-62 34 -103 34q-90 0 -151 -94q-113 -174 -113 -381q0 -82 41 -131t113 -49q22 0 39 4l-105 -184q-74 -17 -125 -17q-162 0 -255 96.5
t-93 264.5q0 143 61.5 283.5t163.5 234.5q170 156 459 156q70 0 225 -21q31 -4 68 -4q96 0 186 41zM1140 1664l-520 -208l-115 45l495 327zM1128 1157l-86 -49l-262 162l-274 -160l-96 57l421 344z" />
    <glyph glyph-name="uni1EA9" unicode="&#x1ea9;" horiz-adv-x="1222" 
d="M1206 1024l-153 -694q-13 -56 -13 -86q0 -64 68 -64q45 0 94 19l-145 -187q-92 -41 -176 -41q-215 0 -215 189q0 51 26 170l103 461q-62 34 -103 34q-90 0 -151 -94q-113 -174 -113 -381q0 -82 41 -131t113 -49q22 0 39 4l-105 -184q-74 -17 -125 -17q-162 0 -255 96.5
t-93 264.5q0 143 61.5 283.5t163.5 234.5q170 156 459 156q70 0 225 -21q31 -4 68 -4q96 0 186 41zM1377 1607q-13 -65 -65 -111q-28 -25 -92.5 -64t-70.5 -73q-1 -5 -1 -18h-133q2 22 4 29q11 58 83 114q76 59 86 105q7 37 -18.5 62t-72.5 25q-48 0 -111 -34l65 121
q57 20 132 20q101 0 155.5 -49t38.5 -127zM1128 1157l-86 -49l-262 162l-274 -160l-96 57l421 344z" />
    <glyph glyph-name="uni1EAB" unicode="&#x1eab;" horiz-adv-x="1222" 
d="M1363 1760q-63 -121 -106 -178q-62 -82 -170 -82q-47 0 -168 37q-109 33 -170 33q-101 0 -197 -64q72 131 115 180q63 72 157 72q52 0 183 -41q98 -31 155 -31q107 0 201 74zM1206 1024l-153 -694q-13 -56 -13 -86q0 -64 68 -64q45 0 94 19l-145 -187q-92 -41 -176 -41
q-215 0 -215 189q0 51 26 170l103 461q-62 34 -103 34q-90 0 -151 -94q-113 -174 -113 -381q0 -82 41 -131t113 -49q22 0 39 4l-105 -184q-74 -17 -125 -17q-162 0 -255 96.5t-93 264.5q0 143 61.5 283.5t163.5 234.5q170 156 459 156q70 0 225 -21q31 -4 68 -4q96 0 186 41
zM1128 1157l-86 -49l-262 162l-274 -160l-96 57l421 344z" />
    <glyph glyph-name="uni1EAD" unicode="&#x1ead;" horiz-adv-x="1222" 
d="M1206 1024l-153 -694q-13 -56 -13 -86q0 -64 68 -64q45 0 94 19l-145 -187q-92 -41 -176 -41q-215 0 -215 189q0 51 26 170l103 461q-62 34 -103 34q-90 0 -151 -94q-113 -174 -113 -381q0 -82 41 -131t113 -49q22 0 39 4l-105 -184q-74 -17 -125 -17q-162 0 -255 96.5
t-93 264.5q0 143 61.5 283.5t163.5 234.5q170 156 459 156q70 0 225 -21q31 -4 68 -4q96 0 186 41zM699 -272q0 -80 -48 -130t-126 -50q-152 0 -152 153q0 78 50.5 125t132.5 47q143 0 143 -145zM1128 1157l-86 -49l-262 162l-274 -160l-96 57l421 344z" />
    <glyph glyph-name="abreve" unicode="&#x103;" horiz-adv-x="1222" 
d="M1206 1024l-153 -694q-13 -56 -13 -86q0 -64 68 -64q45 0 94 19l-145 -187q-92 -41 -176 -41q-215 0 -215 189q0 51 26 170l103 461q-62 34 -103 34q-90 0 -151 -94q-113 -174 -113 -381q0 -82 41 -131t113 -49q22 0 39 4l-105 -184q-74 -17 -125 -17q-162 0 -255 96.5
t-93 264.5q0 143 61.5 283.5t163.5 234.5q170 156 459 156q70 0 225 -21q31 -4 68 -4q96 0 186 41zM1218 1345q-84 -132 -176 -185.5t-229 -53.5t-207 53.5t-103 185.5l137 52q46 -124 207 -124q162 0 257 124z" />
    <glyph glyph-name="uni1EB1" unicode="&#x1eb1;" horiz-adv-x="1222" 
d="M1206 1024l-153 -694q-13 -56 -13 -86q0 -64 68 -64q45 0 94 19l-145 -187q-92 -41 -176 -41q-215 0 -215 189q0 51 26 170l103 461q-62 34 -103 34q-90 0 -151 -94q-113 -174 -113 -381q0 -82 41 -131t113 -49q22 0 39 4l-105 -184q-74 -17 -125 -17q-162 0 -255 96.5
t-93 264.5q0 143 61.5 283.5t163.5 234.5q170 156 459 156q70 0 225 -21q31 -4 68 -4q96 0 186 41zM1067 1449l-95 -60l-519 211l137 174zM1218 1345q-84 -132 -176 -185.5t-229 -53.5t-207 53.5t-103 185.5l137 52q46 -124 207 -124q162 0 257 124z" />
    <glyph glyph-name="uni1EAF" unicode="&#x1eaf;" horiz-adv-x="1222" 
d="M1206 1024l-153 -694q-13 -56 -13 -86q0 -64 68 -64q45 0 94 19l-145 -187q-92 -41 -176 -41q-215 0 -215 189q0 51 26 170l103 461q-62 34 -103 34q-90 0 -151 -94q-113 -174 -113 -381q0 -82 41 -131t113 -49q22 0 39 4l-105 -184q-74 -17 -125 -17q-162 0 -255 96.5
t-93 264.5q0 143 61.5 283.5t163.5 234.5q170 156 459 156q70 0 225 -21q31 -4 68 -4q96 0 186 41zM1348 1574l-520 -208l-115 45l495 327zM1218 1345q-84 -132 -176 -185.5t-229 -53.5t-207 53.5t-103 185.5l137 52q46 -124 207 -124q162 0 257 124z" />
    <glyph glyph-name="uni1EB3" unicode="&#x1eb3;" horiz-adv-x="1222" 
d="M1206 1024l-153 -694q-13 -56 -13 -86q0 -64 68 -64q45 0 94 19l-145 -187q-92 -41 -176 -41q-215 0 -215 189q0 51 26 170l103 461q-62 34 -103 34q-90 0 -151 -94q-113 -174 -113 -381q0 -82 41 -131t113 -49q22 0 39 4l-105 -184q-74 -17 -125 -17q-162 0 -255 96.5
t-93 264.5q0 143 61.5 283.5t163.5 234.5q170 156 459 156q70 0 225 -21q31 -4 68 -4q96 0 186 41zM1196 1625q-13 -65 -65 -111q-28 -25 -92.5 -64t-70.5 -73q-1 -5 -1 -18h-133q2 22 4 29q11 58 83 114q76 59 86 105q7 37 -18.5 62t-72.5 25q-48 0 -111 -34l65 121
q57 20 132 20q101 0 155.5 -49t38.5 -127zM1218 1345q-84 -132 -176 -185.5t-229 -53.5t-207 53.5t-103 185.5l137 52q46 -124 207 -124q162 0 257 124z" />
    <glyph glyph-name="uni1EB5" unicode="&#x1eb5;" horiz-adv-x="1222" 
d="M1418 1714q-63 -121 -106 -178q-62 -82 -170 -82q-47 0 -168 37q-109 33 -170 33q-101 0 -197 -64q72 131 115 180q63 72 157 72q52 0 183 -41q98 -31 155 -31q107 0 201 74zM1206 1024l-153 -694q-13 -56 -13 -86q0 -64 68 -64q45 0 94 19l-145 -187q-92 -41 -176 -41
q-215 0 -215 189q0 51 26 170l103 461q-62 34 -103 34q-90 0 -151 -94q-113 -174 -113 -381q0 -82 41 -131t113 -49q22 0 39 4l-105 -184q-74 -17 -125 -17q-162 0 -255 96.5t-93 264.5q0 143 61.5 283.5t163.5 234.5q170 156 459 156q70 0 225 -21q31 -4 68 -4q96 0 186 41
zM1218 1345q-84 -132 -176 -185.5t-229 -53.5t-207 53.5t-103 185.5l137 52q46 -124 207 -124q162 0 257 124z" />
    <glyph glyph-name="uni1EB7" unicode="&#x1eb7;" horiz-adv-x="1222" 
d="M1206 1024l-153 -694q-13 -56 -13 -86q0 -64 68 -64q45 0 94 19l-145 -187q-92 -41 -176 -41q-215 0 -215 189q0 51 26 170l103 461q-62 34 -103 34q-90 0 -151 -94q-113 -174 -113 -381q0 -82 41 -131t113 -49q22 0 39 4l-105 -184q-74 -17 -125 -17q-162 0 -255 96.5
t-93 264.5q0 143 61.5 283.5t163.5 234.5q170 156 459 156q70 0 225 -21q31 -4 68 -4q96 0 186 41zM699 -272q0 -80 -48 -130t-126 -50q-152 0 -152 153q0 78 50.5 125t132.5 47q143 0 143 -145zM1218 1345q-84 -132 -176 -185.5t-229 -53.5t-207 53.5t-103 185.5l137 52
q46 -124 207 -124q162 0 257 124z" />
    <glyph glyph-name="egrave" unicode="&#xe8;" horiz-adv-x="1042" 
d="M1062 788q0 -94 -78 -181t-211 -140q-125 -49 -344 -72q2 -82 23 -139q35 -98 153 -98q185 0 348 182l-69 -266q-219 -101 -424 -101q-203 0 -312.5 94.5t-109.5 270.5q0 280 199.5 475t484.5 195q158 0 249 -59.5t91 -160.5zM714 752q0 57 -70 57q-69 0 -123.5 -77
t-74.5 -204q94 15 167 72q101 78 101 152zM1030 1123l-95 -60l-519 211l137 174z" />
    <glyph glyph-name="eacute" unicode="&#xe9;" horiz-adv-x="1042" 
d="M1062 788q0 -94 -78 -181t-211 -140q-125 -49 -344 -72q2 -82 23 -139q35 -98 153 -98q185 0 348 182l-69 -266q-219 -101 -424 -101q-203 0 -312.5 94.5t-109.5 270.5q0 280 199.5 475t484.5 195q158 0 249 -59.5t91 -160.5zM714 752q0 57 -70 57q-69 0 -123.5 -77
t-74.5 -204q94 15 167 72q101 78 101 152zM1193 1275l-520 -208l-115 45l495 327z" />
    <glyph glyph-name="uni1EBB" unicode="&#x1ebb;" horiz-adv-x="1042" 
d="M1062 788q0 -94 -78 -181t-211 -140q-125 -49 -344 -72q2 -82 23 -139q35 -98 153 -98q185 0 348 182l-69 -266q-219 -101 -424 -101q-203 0 -312.5 94.5t-109.5 270.5q0 280 199.5 475t484.5 195q158 0 249 -59.5t91 -160.5zM714 752q0 57 -70 57q-69 0 -123.5 -77
t-74.5 -204q94 15 167 72q101 78 101 152zM1014 1363q-13 -65 -65 -111q-28 -25 -92 -64t-71 -73q-1 -5 -1 -18h-133q3 22 4 29q12 58 83 114q77 59 86 105q7 37 -18.5 62t-72.5 25q-48 0 -111 -34l66 121q57 20 132 20q101 0 155 -49t38 -127z" />
    <glyph glyph-name="uni1EBD" unicode="&#x1ebd;" horiz-adv-x="1042" 
d="M1062 788q0 -94 -78 -181t-211 -140q-125 -49 -344 -72q2 -82 23 -139q35 -98 153 -98q185 0 348 182l-69 -266q-219 -101 -424 -101q-203 0 -312.5 94.5t-109.5 270.5q0 280 199.5 475t484.5 195q158 0 249 -59.5t91 -160.5zM714 752q0 57 -70 57q-69 0 -123.5 -77
t-74.5 -204q94 15 167 72q101 78 101 152zM1199 1417q-63 -121 -106 -178q-62 -82 -170 -82q-47 0 -168 37q-109 33 -170 33q-101 0 -197 -64q72 131 115 180q63 72 158 72q51 0 182 -41q98 -31 156 -31q106 0 200 74z" />
    <glyph glyph-name="uni1EB9" unicode="&#x1eb9;" horiz-adv-x="1042" 
d="M1062 788q0 -94 -78 -181t-211 -140q-125 -49 -344 -72q2 -82 23 -139q35 -98 153 -98q185 0 348 182l-69 -266q-219 -101 -424 -101q-203 0 -312.5 94.5t-109.5 270.5q0 280 199.5 475t484.5 195q158 0 249 -59.5t91 -160.5zM714 752q0 57 -70 57q-69 0 -123.5 -77
t-74.5 -204q94 15 167 72q101 78 101 152zM563 -272q0 -80 -48 -130t-126 -50q-152 0 -152 153q0 78 50.5 125t132.5 47q143 0 143 -145z" />
    <glyph glyph-name="ecircumflex" unicode="&#xea;" horiz-adv-x="1042" 
d="M1066 1157l-86 -49l-262 162l-274 -160l-97 57l422 344zM1060 788q0 -94 -78 -181t-211 -140q-125 -49 -344 -72q2 -82 23 -139q35 -98 153 -98q185 0 348 182l-69 -266q-219 -101 -424 -101q-203 0 -312.5 94.5t-109.5 270.5q0 280 199.5 475t484.5 195q158 0 249 -59.5
t91 -160.5zM712 752q0 57 -70 57q-69 0 -123.5 -77t-74.5 -204q94 15 167 72q101 78 101 152z" />
    <glyph glyph-name="uni1EC1" unicode="&#x1ec1;" horiz-adv-x="1042" 
d="M1062 788q0 -94 -78 -181t-211 -140q-125 -49 -344 -72q2 -82 23 -139q35 -98 153 -98q185 0 348 182l-69 -266q-219 -101 -424 -101q-203 0 -312.5 94.5t-109.5 270.5q0 280 199.5 475t484.5 195q158 0 249 -59.5t91 -160.5zM714 752q0 57 -70 57q-69 0 -123.5 -77
t-74.5 -204q94 15 167 72q101 78 101 152zM1075 1512l-95 -60l-519 211l137 174zM1066 1157l-86 -49l-262 162l-274 -160l-97 57l422 344z" />
    <glyph glyph-name="uni1EBF" unicode="&#x1ebf;" horiz-adv-x="1042" 
d="M1062 788q0 -94 -78 -181t-211 -140q-125 -49 -344 -72q2 -82 23 -139q35 -98 153 -98q185 0 348 182l-69 -266q-219 -101 -424 -101q-203 0 -312.5 94.5t-109.5 270.5q0 280 199.5 475t484.5 195q158 0 249 -59.5t91 -160.5zM714 752q0 57 -70 57q-69 0 -123.5 -77
t-74.5 -204q94 15 167 72q101 78 101 152zM1075 1682l-520 -208l-115 45l495 327zM1066 1157l-86 -49l-262 162l-274 -160l-97 57l422 344z" />
    <glyph glyph-name="uni1EC3" unicode="&#x1ec3;" horiz-adv-x="1042" 
d="M1062 788q0 -94 -78 -181t-211 -140q-125 -49 -344 -72q2 -82 23 -139q35 -98 153 -98q185 0 348 182l-69 -266q-219 -101 -424 -101q-203 0 -312.5 94.5t-109.5 270.5q0 280 199.5 475t484.5 195q158 0 249 -59.5t91 -160.5zM714 752q0 57 -70 57q-69 0 -123.5 -77
t-74.5 -204q94 15 167 72q101 78 101 152zM1304 1618q-13 -65 -65 -111q-28 -25 -92 -64t-71 -73q-1 -5 -1 -18h-133q3 22 4 29q12 58 83 114q77 59 86 105q7 37 -18.5 62t-72.5 25q-48 0 -111 -34l66 121q57 20 132 20q101 0 155 -49t38 -127zM1066 1157l-86 -49l-262 162
l-274 -160l-97 57l422 344z" />
    <glyph glyph-name="uni1EC5" unicode="&#x1ec5;" horiz-adv-x="1042" 
d="M1062 788q0 -94 -78 -181t-211 -140q-125 -49 -344 -72q2 -82 23 -139q35 -98 153 -98q185 0 348 182l-69 -266q-219 -101 -424 -101q-203 0 -312.5 94.5t-109.5 270.5q0 280 199.5 475t484.5 195q158 0 249 -59.5t91 -160.5zM714 752q0 57 -70 57q-69 0 -123.5 -77
t-74.5 -204q94 15 167 72q101 78 101 152zM1280 1752q-63 -121 -106 -178q-62 -82 -170 -82q-47 0 -168 37q-109 33 -170 33q-101 0 -197 -64q72 131 115 180q63 72 158 72q51 0 182 -41q98 -31 156 -31q106 0 200 74zM1066 1157l-86 -49l-262 162l-274 -160l-97 57l422 344
z" />
    <glyph glyph-name="uni1EC7" unicode="&#x1ec7;" horiz-adv-x="1042" 
d="M1062 788q0 -94 -78 -181t-211 -140q-125 -49 -344 -72q2 -82 23 -139q35 -98 153 -98q185 0 348 182l-69 -266q-219 -101 -424 -101q-203 0 -312.5 94.5t-109.5 270.5q0 280 199.5 475t484.5 195q158 0 249 -59.5t91 -160.5zM714 752q0 57 -70 57q-69 0 -123.5 -77
t-74.5 -204q94 15 167 72q101 78 101 152zM563 -272q0 -80 -48 -130t-126 -50q-152 0 -152 153q0 78 50.5 125t132.5 47q143 0 143 -145zM1066 1157l-86 -49l-262 162l-274 -160l-97 57l422 344z" />
    <glyph glyph-name="igrave" unicode="&#xec;" horiz-adv-x="647" 
d="M621 1024l-153 -694q-14 -66 -14 -88q0 -62 63 -62q37 0 86 19l-145 -187q-91 -41 -185 -41q-192 0 -192 193q0 45 26 166l86 389q25 110 25 158q0 53 -53 108q96 0 307 4q88 2 149 35zM686 1123l-95 -60l-519 211l136 174z" />
    <glyph glyph-name="iacute" unicode="&#xed;" horiz-adv-x="647" 
d="M622 1024l-154 -694q-14 -66 -14 -88q0 -62 63 -62q37 0 86 19l-145 -187q-90 -41 -184 -41q-193 0 -193 193q0 45 27 166l86 389q24 110 24 158q0 53 -53 108q96 0 307 4q88 2 150 35zM813 1275l-520 -208l-115 45l495 327z" />
    <glyph glyph-name="uni1EC9" unicode="&#x1ec9;" horiz-adv-x="647" 
d="M622 1024l-154 -694q-14 -66 -14 -88q0 -62 63 -62q37 0 86 19l-145 -187q-90 -41 -184 -41q-193 0 -193 193q0 45 27 166l86 389q24 110 24 158q0 53 -53 108q96 0 307 4q88 2 150 35zM723 1363q-13 -65 -65 -111q-28 -25 -92.5 -64t-70.5 -73q-1 -5 -1 -18h-133
q2 22 4 29q11 58 83 114q76 59 86 105q7 37 -18.5 62t-72.5 25q-48 0 -111 -34l65 121q57 20 132 20q101 0 155.5 -49t38.5 -127z" />
    <glyph glyph-name="itilde" unicode="&#x129;" horiz-adv-x="647" 
d="M622 1024l-154 -694q-14 -66 -14 -88q0 -62 63 -62q37 0 86 19l-145 -187q-90 -41 -184 -41q-193 0 -193 193q0 45 27 166l86 389q24 110 24 158q0 53 -53 108q96 0 307 4q88 2 150 35zM909 1417q-63 -121 -106 -178q-62 -82 -170 -82q-47 0 -168 37q-109 33 -170 33
q-101 0 -197 -64q72 131 115 180q63 72 158 72q51 0 182 -41q98 -31 156 -31q106 0 200 74z" />
    <glyph glyph-name="uni1ECB" unicode="&#x1ecb;" horiz-adv-x="647" 
d="M685 1296q0 -98 -60.5 -161.5t-154.5 -63.5q-90 0 -143.5 53.5t-53.5 141.5q0 100 61.5 158.5t163.5 58.5q84 0 135.5 -51.5t51.5 -135.5zM621 1024l-153 -694q-15 -66 -15 -88q0 -62 64 -62q37 0 86 19l-146 -187q-90 -41 -184 -41q-192 0 -192 193q0 45 26 166l86 389
q25 110 25 158q0 53 -54 108q97 0 308 4q88 2 149 35zM382 -272q0 -80 -48.5 -130t-125.5 -50q-152 0 -152 153q0 78 50 125t132 47q144 0 144 -145z" />
    <glyph glyph-name="ograve" unicode="&#xf2;" 
d="M1161 584q0 -156 -68.5 -293t-187.5 -219q-144 -99 -354 -99q-492 0 -492 420q0 301 197 475q157 140 426 140q231 0 355 -110t124 -314zM784 631q0 194 -119 194q-94 0 -161.5 -138t-67.5 -329q0 -202 123 -202q106 0 165.5 156.5t59.5 318.5zM1013 1123l-96 -60
l-518 211l136 174z" />
    <glyph glyph-name="oacute" unicode="&#xf3;" 
d="M1161 584q0 -156 -68.5 -293t-187.5 -219q-144 -99 -354 -99q-492 0 -492 420q0 301 197 475q157 140 426 140q231 0 355 -110t124 -314zM784 631q0 194 -119 194q-94 0 -161.5 -138t-67.5 -329q0 -202 123 -202q106 0 165.5 156.5t59.5 318.5zM1086 1275l-520 -208
l-115 45l495 327z" />
    <glyph glyph-name="uni1ECF" unicode="&#x1ecf;" 
d="M1161 584q0 -156 -68.5 -293t-187.5 -219q-144 -99 -354 -99q-492 0 -492 420q0 301 197 475q157 140 426 140q231 0 355 -110t124 -314zM784 631q0 194 -119 194q-94 0 -161.5 -138t-67.5 -329q0 -202 123 -202q106 0 165.5 156.5t59.5 318.5zM1032 1363
q-13 -65 -65 -111q-28 -25 -92.5 -64t-71.5 -73q-1 -5 0 -18h-133q2 22 3 29q12 58 83 114q77 59 86 105q8 37 -17.5 62t-72.5 25q-48 0 -111 -34l65 121q57 20 132 20q101 0 155 -49t39 -127z" />
    <glyph glyph-name="otilde" unicode="&#xf5;" 
d="M1144 1417q-63 -121 -106 -178q-61 -82 -170 -82q-47 0 -168 37q-109 33 -170 33q-100 0 -197 -64q72 131 115 180q64 72 158 72q51 0 182 -41q98 -31 156 -31q106 0 200 74zM1161 584q0 -156 -68.5 -293t-187.5 -219q-144 -99 -354 -99q-492 0 -492 420q0 301 197 475
q157 140 426 140q231 0 355 -110t124 -314zM784 631q0 194 -119 194q-94 0 -161.5 -138t-67.5 -329q0 -202 123 -202q106 0 165.5 156.5t59.5 318.5z" />
    <glyph glyph-name="uni1ECD" unicode="&#x1ecd;" 
d="M1161 584q0 -156 -68.5 -293t-187.5 -219q-144 -99 -354 -99q-492 0 -492 420q0 301 197 475q157 140 426 140q231 0 355 -110t124 -314zM784 631q0 194 -119 194q-94 0 -161.5 -138t-67.5 -329q0 -202 123 -202q106 0 165.5 156.5t59.5 318.5zM637 -272
q0 -80 -48.5 -130t-125.5 -50q-152 0 -152 153q0 78 50 125t132 47q144 0 144 -145z" />
    <glyph glyph-name="ocircumflex" unicode="&#xf4;" 
d="M1056 1157l-86 -49l-262 162l-274 -160l-96 57l421 344zM1161 584q0 -156 -68.5 -293t-187.5 -219q-144 -99 -354 -99q-492 0 -492 420q0 301 197 475q157 140 426 140q231 0 355 -110t124 -314zM784 631q0 194 -119 194q-94 0 -161.5 -138t-67.5 -329q0 -202 123 -202
q106 0 165.5 156.5t59.5 318.5z" />
    <glyph glyph-name="uni1ED3" unicode="&#x1ed3;" 
d="M1161 584q0 -156 -68.5 -293t-187.5 -219q-144 -99 -354 -99q-492 0 -492 420q0 301 197 475q157 140 426 140q231 0 355 -110t124 -314zM784 631q0 194 -119 194q-94 0 -161.5 -138t-67.5 -329q0 -202 123 -202q106 0 165.5 156.5t59.5 318.5zM1092 1512l-96 -60
l-518 211l136 174zM1056 1157l-86 -49l-262 162l-274 -160l-96 57l421 344z" />
    <glyph glyph-name="uni1ED1" unicode="&#x1ed1;" 
d="M1161 584q0 -156 -68.5 -293t-187.5 -219q-144 -99 -354 -99q-492 0 -492 420q0 301 197 475q157 140 426 140q231 0 355 -110t124 -314zM784 631q0 194 -119 194q-94 0 -161.5 -138t-67.5 -329q0 -202 123 -202q106 0 165.5 156.5t59.5 318.5zM1077 1663l-520 -208
l-115 45l495 327zM1056 1157l-86 -49l-262 162l-274 -160l-96 57l421 344z" />
    <glyph glyph-name="uni1ED5" unicode="&#x1ed5;" 
d="M1161 584q0 -156 -68.5 -293t-187.5 -219q-144 -99 -354 -99q-492 0 -492 420q0 301 197 475q157 140 426 140q231 0 355 -110t124 -314zM784 631q0 194 -119 194q-94 0 -161.5 -138t-67.5 -329q0 -202 123 -202q106 0 165.5 156.5t59.5 318.5zM1303 1616
q-13 -65 -65 -111q-28 -25 -92.5 -64t-71.5 -73q-1 -5 0 -18h-133q2 22 3 29q12 58 83 114q77 59 86 105q8 37 -17.5 62t-72.5 25q-48 0 -111 -34l65 121q57 20 132 20q101 0 155 -49t39 -127zM1056 1157l-86 -49l-262 162l-274 -160l-96 57l421 344z" />
    <glyph glyph-name="uni1ED7" unicode="&#x1ed7;" 
d="M1280 1752q-63 -121 -106 -178q-61 -82 -170 -82q-47 0 -168 37q-109 33 -170 33q-100 0 -197 -64q72 131 115 180q64 72 158 72q51 0 182 -41q98 -31 156 -31q106 0 200 74zM1161 584q0 -156 -68.5 -293t-187.5 -219q-144 -99 -354 -99q-492 0 -492 420q0 301 197 475
q157 140 426 140q231 0 355 -110t124 -314zM784 631q0 194 -119 194q-94 0 -161.5 -138t-67.5 -329q0 -202 123 -202q106 0 165.5 156.5t59.5 318.5zM1056 1157l-86 -49l-262 162l-274 -160l-96 57l421 344z" />
    <glyph glyph-name="uni1ED9" unicode="&#x1ed9;" 
d="M1161 584q0 -156 -68.5 -293t-187.5 -219q-144 -99 -354 -99q-492 0 -492 420q0 301 197 475q157 140 426 140q231 0 355 -110t124 -314zM784 631q0 194 -119 194q-94 0 -161.5 -138t-67.5 -329q0 -202 123 -202q106 0 165.5 156.5t59.5 318.5zM637 -272
q0 -80 -48.5 -130t-125.5 -50q-152 0 -152 153q0 78 50 125t132 47q144 0 144 -145zM1056 1157l-86 -49l-262 162l-274 -160l-96 57l421 344z" />
    <glyph glyph-name="glyph216" unicode="&#xf9;" horiz-adv-x="1228" 
d="M1208 1024l-149 -670q-17 -73 -17 -116q0 -56 60 -56q39 0 100 21l-143 -189q-97 -41 -183 -41q-184 0 -211 160q-133 -160 -317 -160q-111 0 -184.5 72t-73.5 178q0 43 16 117l84 379q27 121 27 158q0 53 -55 108q98 0 309 4q86 2 149 35l-137 -616q-20 -93 -20 -123
q0 -68 73 -68q86 0 127 64q29 43 52 149l63 289q25 112 25 158q0 53 -54 108q97 0 310 4q86 2 149 35zM1013 1123l-95 -60l-519 211l136 174z" />
    <glyph glyph-name="glyph217" unicode="&#xfa;" horiz-adv-x="1228" 
d="M1208 1024l-149 -670q-17 -73 -17 -116q0 -56 60 -56q39 0 100 21l-143 -189q-97 -41 -183 -41q-184 0 -211 160q-133 -160 -317 -160q-111 0 -184.5 72t-73.5 178q0 43 16 117l84 379q27 121 27 158q0 53 -55 108q98 0 309 4q86 2 149 35l-137 -616q-20 -93 -20 -123
q0 -68 73 -68q86 0 127 64q29 43 52 149l63 289q25 112 25 158q0 53 -54 108q97 0 310 4q86 2 149 35zM1095 1275l-520 -208l-115 45l495 327z" />
    <glyph glyph-name="uni1EE7" unicode="&#x1ee7;" horiz-adv-x="1228" 
d="M1208 1024l-149 -670q-17 -73 -17 -116q0 -56 60 -56q39 0 100 21l-143 -189q-97 -41 -183 -41q-184 0 -211 160q-133 -160 -317 -160q-111 0 -184.5 72t-73.5 178q0 43 16 117l84 379q27 121 27 158q0 53 -55 108q98 0 309 4q86 2 149 35l-137 -616q-20 -93 -20 -123
q0 -68 73 -68q86 0 127 64q29 43 52 149l63 289q25 112 25 158q0 53 -54 108q97 0 310 4q86 2 149 35zM1014 1363q-13 -65 -65 -111q-28 -25 -92.5 -64t-70.5 -73q-1 -5 -1 -18h-133q2 22 4 29q11 58 83 114q76 59 86 105q7 37 -18.5 62t-72.5 25q-48 0 -111 -34l65 121
q57 20 132 20q101 0 155.5 -49t38.5 -127z" />
    <glyph glyph-name="utilde" unicode="&#x169;" horiz-adv-x="1228" 
d="M1208 1024l-149 -670q-17 -73 -17 -116q0 -56 60 -56q39 0 100 21l-143 -189q-97 -41 -183 -41q-184 0 -211 160q-133 -160 -317 -160q-111 0 -184.5 72t-73.5 178q0 43 16 117l84 379q27 121 27 158q0 53 -55 108q98 0 309 4q86 2 149 35l-137 -616q-20 -93 -20 -123
q0 -68 73 -68q86 0 127 64q29 43 52 149l63 289q25 112 25 158q0 53 -54 108q97 0 310 4q86 2 149 35zM1200 1417q-63 -121 -106 -178q-62 -82 -170 -82q-48 0 -168 37q-109 33 -170 33q-101 0 -197 -64q72 131 115 180q63 72 157 72q52 0 183 -41q98 -31 155 -31
q107 0 201 74z" />
    <glyph glyph-name="uni1EE5" unicode="&#x1ee5;" horiz-adv-x="1228" 
d="M1208 1024l-149 -670q-17 -73 -17 -116q0 -56 60 -56q39 0 100 21l-143 -189q-97 -41 -183 -41q-184 0 -211 160q-133 -160 -317 -160q-111 0 -184.5 72t-73.5 178q0 43 16 117l84 379q27 121 27 158q0 53 -55 108q98 0 309 4q86 2 149 35l-137 -616q-20 -93 -20 -123
q0 -68 73 -68q86 0 127 64q29 43 52 149l63 289q25 112 25 158q0 53 -54 108q97 0 310 4q86 2 149 35zM673 -272q0 -80 -48 -130t-126 -50q-152 0 -152 153q0 78 50.5 125t132.5 47q143 0 143 -145z" />
    <glyph glyph-name="uhorn" unicode="&#x1b0;" horiz-adv-x="1228" 
d="M1181 1012q-9 13 -14 30q-19 55 12 113q34 64 102.5 94.5t131.5 10.5q67 -22 86 -85t-18 -137q-29 -52 -103.5 -117t-161.5 -111q-38 -20 -62 -29l-95 -427q-17 -73 -17 -116q0 -56 60 -56q39 0 100 21l-143 -189q-96 -41 -182 -41q-185 0 -211 160q-134 -160 -318 -160
q-110 0 -184 72t-74 178q0 43 16 117l84 379q27 121 27 158q0 53 -55 108q98 0 309 4q86 2 150 35l-138 -616q-20 -93 -20 -123q0 -68 74 -68q86 0 127 64q28 43 51 149l63 289q25 112 25 158q0 53 -53 108q96 0 309 4q69 2 122 23zM1201 991l-23 -102q61 35 102 71l-38 9
q-24 8 -41 22z" />
    <glyph glyph-name="uni1EEB" unicode="&#x1eeb;" horiz-adv-x="1228" 
d="M1013 1123l-95 -60l-519 211l137 174zM1181 1012q-9 13 -14 30q-19 55 12 113q34 64 102.5 94.5t131.5 10.5q67 -22 86 -85t-18 -137q-29 -52 -103.5 -117t-161.5 -111q-38 -20 -62 -29l-95 -427q-17 -73 -17 -116q0 -56 60 -56q39 0 100 21l-143 -189q-96 -41 -182 -41
q-185 0 -211 160q-134 -160 -318 -160q-110 0 -184 72t-74 178q0 43 16 117l84 379q27 121 27 158q0 53 -55 108q98 0 309 4q86 2 150 35l-138 -616q-20 -93 -20 -123q0 -68 74 -68q86 0 127 64q28 43 51 149l63 289q25 112 25 158q0 53 -53 108q96 0 309 4q69 2 122 23z
M1201 991l-23 -102q61 35 102 71l-38 9q-24 8 -41 22z" />
    <glyph glyph-name="uni1EE9" unicode="&#x1ee9;" horiz-adv-x="1228" 
d="M1095 1275l-520 -208l-115 45l495 327zM1181 1012q-9 13 -14 30q-19 55 12 113q34 64 102.5 94.5t131.5 10.5q67 -22 86 -85t-18 -137q-29 -52 -103.5 -117t-161.5 -111q-38 -20 -62 -29l-95 -427q-17 -73 -17 -116q0 -56 60 -56q39 0 100 21l-143 -189q-96 -41 -182 -41
q-185 0 -211 160q-134 -160 -318 -160q-110 0 -184 72t-74 178q0 43 16 117l84 379q27 121 27 158q0 53 -55 108q98 0 309 4q86 2 150 35l-138 -616q-20 -93 -20 -123q0 -68 74 -68q86 0 127 64q28 43 51 149l63 289q25 112 25 158q0 53 -53 108q96 0 309 4q69 2 122 23z
M1201 991l-23 -102q61 35 102 71l-38 9q-24 8 -41 22z" />
    <glyph glyph-name="uni1EED" unicode="&#x1eed;" horiz-adv-x="1228" 
d="M1014 1363q-13 -65 -65 -111q-28 -25 -92.5 -64t-70.5 -73q-1 -5 -1 -18h-133q2 22 4 29q11 58 83 114q76 59 86 105q7 37 -18.5 62t-72.5 25q-48 0 -111 -34l65 121q57 20 132 20q101 0 155.5 -49t38.5 -127zM1181 1012q-9 13 -14 30q-19 55 12 113q34 64 102.5 94.5
t131.5 10.5q67 -22 86 -85t-18 -137q-29 -52 -103.5 -117t-161.5 -111q-38 -20 -62 -29l-95 -427q-17 -73 -17 -116q0 -56 60 -56q39 0 100 21l-143 -189q-96 -41 -182 -41q-185 0 -211 160q-134 -160 -318 -160q-110 0 -184 72t-74 178q0 43 16 117l84 379q27 121 27 158
q0 53 -55 108q98 0 309 4q86 2 150 35l-138 -616q-20 -93 -20 -123q0 -68 74 -68q86 0 127 64q28 43 51 149l63 289q25 112 25 158q0 53 -53 108q96 0 309 4q69 2 122 23zM1201 991l-23 -102q61 35 102 71l-38 9q-24 8 -41 22z" />
    <glyph glyph-name="uni1EEF" unicode="&#x1eef;" horiz-adv-x="1228" 
d="M1200 1417q-63 -121 -106 -178q-62 -82 -170 -82q-47 0 -168 37q-109 33 -170 33q-101 0 -197 -64q72 131 115 180q63 72 158 72q51 0 182 -41q98 -31 155 -31q107 0 201 74zM1181 1012q-9 13 -14 30q-19 55 12 113q34 64 102.5 94.5t131.5 10.5q67 -22 86 -85t-18 -137
q-29 -52 -103.5 -117t-161.5 -111q-38 -20 -62 -29l-95 -427q-17 -73 -17 -116q0 -56 60 -56q39 0 100 21l-143 -189q-96 -41 -182 -41q-185 0 -211 160q-134 -160 -318 -160q-110 0 -184 72t-74 178q0 43 16 117l84 379q27 121 27 158q0 53 -55 108q98 0 309 4q86 2 150 35
l-138 -616q-20 -93 -20 -123q0 -68 74 -68q86 0 127 64q28 43 51 149l63 289q25 112 25 158q0 53 -53 108q96 0 309 4q69 2 122 23zM1201 991l-23 -102q61 35 102 71l-38 9q-24 8 -41 22z" />
    <glyph glyph-name="uni1EF1" unicode="&#x1ef1;" horiz-adv-x="1228" 
d="M673 -272q0 -80 -48 -130t-126 -50q-152 0 -152 153q0 78 50.5 125t132.5 47q143 0 143 -145zM1181 1012q-9 13 -14 30q-19 55 12 113q34 64 102.5 94.5t131.5 10.5q67 -22 86 -85t-18 -137q-29 -52 -103.5 -117t-161.5 -111q-38 -20 -62 -29l-95 -427q-17 -73 -17 -116
q0 -56 60 -56q39 0 100 21l-143 -189q-96 -41 -182 -41q-185 0 -211 160q-134 -160 -318 -160q-110 0 -184 72t-74 178q0 43 16 117l84 379q27 121 27 158q0 53 -55 108q98 0 309 4q86 2 150 35l-138 -616q-20 -93 -20 -123q0 -68 74 -68q86 0 127 64q28 43 51 149l63 289
q25 112 25 158q0 53 -53 108q96 0 309 4q69 2 122 23zM1201 991l-23 -102q61 35 102 71l-38 9q-24 8 -41 22z" />
    <glyph glyph-name="ohorn" unicode="&#x1a1;" 
d="M784 631q0 194 -118 194q-95 0 -162.5 -138t-67.5 -329q0 -202 123 -202q107 0 166 156.5t59 318.5zM1099 825q62 -97 62 -241q0 -156 -68.5 -293t-187.5 -219q-143 -99 -354 -99q-492 0 -492 420q0 301 197 475q158 140 426 140q231 0 355 -110q2 -2 5 -4q55 33 93 66
l-38 9q-57 18 -75.5 73t12.5 113q34 64 102.5 94.5t131.5 10.5q67 -22 86 -85t-18 -137q-29 -52 -103 -117q-63 -54 -134 -96z" />
    <glyph glyph-name="uni1EDD" unicode="&#x1edd;" 
d="M784 631q0 194 -118 194q-95 0 -162.5 -138t-67.5 -329q0 -202 123 -202q107 0 166 156.5t59 318.5zM986 1123l-95 -60l-519 211l137 174zM1099 825q62 -97 62 -241q0 -156 -68.5 -293t-187.5 -219q-143 -99 -354 -99q-492 0 -492 420q0 301 197 475q158 140 426 140
q231 0 355 -110q2 -2 5 -4q55 33 93 66l-38 9q-57 18 -75.5 73t12.5 113q34 64 102.5 94.5t131.5 10.5q67 -22 86 -85t-18 -137q-29 -52 -103 -117q-63 -54 -134 -96z" />
    <glyph glyph-name="uni1EDB" unicode="&#x1edb;" 
d="M784 631q0 194 -118 194q-95 0 -162.5 -138t-67.5 -329q0 -202 123 -202q107 0 166 156.5t59 318.5zM1086 1275l-520 -208l-115 45l495 327zM1099 825q62 -97 62 -241q0 -156 -68.5 -293t-187.5 -219q-143 -99 -354 -99q-492 0 -492 420q0 301 197 475q158 140 426 140
q231 0 355 -110q2 -2 5 -4q55 33 93 66l-38 9q-57 18 -75.5 73t12.5 113q34 64 102.5 94.5t131.5 10.5q67 -22 86 -85t-18 -137q-29 -52 -103 -117q-63 -54 -134 -96z" />
    <glyph glyph-name="uni1EDF" unicode="&#x1edf;" 
d="M784 631q0 194 -118 194q-95 0 -162.5 -138t-67.5 -329q0 -202 123 -202q107 0 166 156.5t59 318.5zM1032 1363q-13 -65 -65 -111q-28 -25 -92.5 -64t-70.5 -73q-1 -5 -1 -18h-133q2 22 4 29q11 58 83 114q76 59 86 105q7 37 -18.5 62t-72.5 25q-48 0 -111 -34l65 121
q57 20 132 20q101 0 155.5 -49t38.5 -127zM1099 825q62 -97 62 -241q0 -156 -68.5 -293t-187.5 -219q-143 -99 -354 -99q-492 0 -492 420q0 301 197 475q158 140 426 140q231 0 355 -110q2 -2 5 -4q55 33 93 66l-38 9q-57 18 -75.5 73t12.5 113q34 64 102.5 94.5t131.5 10.5
q67 -22 86 -85t-18 -137q-29 -52 -103 -117q-63 -54 -134 -96z" />
    <glyph glyph-name="uni1EE1" unicode="&#x1ee1;" 
d="M1145 1417q-64 -121 -107 -178q-61 -82 -170 -82q-47 0 -168 37q-108 33 -170 33q-100 0 -196 -64q72 131 115 180q63 72 157 72q51 0 182 -41q99 -31 156 -31q107 0 201 74zM784 631q0 194 -118 194q-95 0 -162.5 -138t-67.5 -329q0 -202 123 -202q107 0 166 156.5
t59 318.5zM1099 825q62 -97 62 -241q0 -156 -68.5 -293t-187.5 -219q-143 -99 -354 -99q-492 0 -492 420q0 301 197 475q158 140 426 140q231 0 355 -110q2 -2 5 -4q55 33 93 66l-38 9q-57 18 -75.5 73t12.5 113q34 64 102.5 94.5t131.5 10.5q67 -22 86 -85t-18 -137
q-29 -52 -103 -117q-63 -54 -134 -96z" />
    <glyph glyph-name="uni1EE3" unicode="&#x1ee3;" 
d="M784 631q0 194 -118 194q-95 0 -162.5 -138t-67.5 -329q0 -202 123 -202q107 0 166 156.5t59 318.5zM637 -272q0 -80 -48 -130t-126 -50q-152 0 -152 153q0 78 50.5 125t132.5 47q143 0 143 -145zM1099 825q62 -97 62 -241q0 -156 -68.5 -293t-187.5 -219
q-143 -99 -354 -99q-492 0 -492 420q0 301 197 475q158 140 426 140q231 0 355 -110q2 -2 5 -4q55 33 93 66l-38 9q-57 18 -75.5 73t12.5 113q34 64 102.5 94.5t131.5 10.5q67 -22 86 -85t-18 -137q-29 -52 -103 -117q-63 -54 -134 -96z" />
    <glyph glyph-name="ygrave" unicode="&#x1ef3;" horiz-adv-x="1175" 
d="M1190 1024l-201 -909q-61 -277 -164 -404q-137 -170 -409 -170q-182 0 -302 71t-120 177q0 72 49 118t127 46q84 0 152 -55q-54 -25 -54 -78q0 -86 127 -86q123 0 183 147q26 68 57 219l14 72q-129 -141 -319 -141q-119 0 -184.5 54t-65.5 151q0 61 23 161l71 322
q25 110 25 158q0 55 -53 108q94 0 301 4q86 2 149 35l-125 -559q-20 -92 -20 -125q0 -66 75 -66q80 0 117 44t66 169l51 232q33 147 33 172q0 49 -62 94q101 0 312 4q92 2 147 35zM1013 1123l-95 -60l-519 211l137 174z" />
    <glyph glyph-name="glyph234" unicode="&#xfd;" horiz-adv-x="1175" 
d="M1190 1024l-201 -909q-61 -277 -164 -404q-137 -170 -409 -170q-182 0 -302 71t-120 177q0 72 49 118t127 46q84 0 152 -55q-54 -25 -54 -78q0 -86 127 -86q123 0 183 147q26 68 57 219l14 72q-129 -141 -319 -141q-119 0 -184.5 54t-65.5 151q0 61 23 161l71 322
q25 110 25 158q0 55 -53 108q94 0 301 4q86 2 149 35l-125 -559q-20 -92 -20 -125q0 -66 75 -66q80 0 117 44t66 169l51 232q33 147 33 172q0 49 -62 94q101 0 312 4q92 2 147 35zM1095 1275l-520 -208l-115 45l495 327z" />
    <glyph glyph-name="uni1EF7" unicode="&#x1ef7;" horiz-adv-x="1175" 
d="M1190 1024l-201 -909q-61 -277 -164 -404q-137 -170 -409 -170q-182 0 -302 71t-120 177q0 72 49 118t127 46q84 0 152 -55q-54 -25 -54 -78q0 -86 127 -86q123 0 183 147q26 68 57 219l14 72q-129 -141 -319 -141q-119 0 -184.5 54t-65.5 151q0 61 23 161l71 322
q25 110 25 158q0 55 -53 108q94 0 301 4q86 2 149 35l-125 -559q-20 -92 -20 -125q0 -66 75 -66q80 0 117 44t66 169l51 232q33 147 33 172q0 49 -62 94q101 0 312 4q92 2 147 35zM986 1363q-13 -65 -65 -111q-28 -25 -92 -64t-71 -73q-1 -5 -1 -18h-133q3 22 4 29
q12 58 83 114q77 59 86 105q7 37 -18.5 62t-72.5 25q-48 0 -111 -34l66 121q57 20 132 20q101 0 155 -49t38 -127z" />
    <glyph glyph-name="uni1EF9" unicode="&#x1ef9;" horiz-adv-x="1175" 
d="M1190 1024l-201 -909q-61 -277 -164 -404q-137 -170 -409 -170q-182 0 -302 71t-120 177q0 72 49 118t127 46q84 0 152 -55q-54 -25 -54 -78q0 -86 127 -86q123 0 183 147q26 68 57 219l14 72q-129 -141 -319 -141q-119 0 -184.5 54t-65.5 151q0 61 23 161l71 322
q25 110 25 158q0 55 -53 108q94 0 301 4q86 2 149 35l-125 -559q-20 -92 -20 -125q0 -66 75 -66q80 0 117 44t66 169l51 232q33 147 33 172q0 49 -62 94q101 0 312 4q92 2 147 35zM1200 1417q-63 -121 -106 -178q-62 -82 -170 -82q-47 0 -168 37q-109 33 -170 33
q-100 0 -197 -64q72 131 115 180q63 72 158 72q51 0 182 -41q98 -31 156 -31q106 0 200 74z" />
    <glyph glyph-name="uni1EF5" unicode="&#x1ef5;" horiz-adv-x="1175" 
d="M1190 1024l-201 -909q-61 -277 -164 -404q-137 -170 -409 -170q-182 0 -302 71t-120 177q0 72 49 118t127 46q84 0 152 -55q-54 -25 -54 -78q0 -86 127 -86q123 0 183 147q26 68 57 219l14 72q-129 -141 -319 -141q-119 0 -184.5 54t-65.5 151q0 61 23 161l71 322
q25 110 25 158q0 55 -53 108q94 0 301 4q86 2 149 35l-125 -559q-20 -92 -20 -125q0 -66 75 -66q80 0 117 44t66 169l51 232q33 147 33 172q0 49 -62 94q101 0 312 4q92 2 147 35zM1273 -272q0 -80 -48 -130t-126 -50q-151 0 -151 153q0 78 50 125t132 47q143 0 143 -145z
" />
    <glyph glyph-name="divide" unicode="&#xf7;" horiz-adv-x="1720" 
 />
    <glyph glyph-name="ugrave" horiz-adv-x="587" 
 />
    <glyph glyph-name="uacute" horiz-adv-x="585" 
 />
    <glyph glyph-name="yacute" horiz-adv-x="634" 
 />
    <glyph glyph-name="Ccaron" unicode="&#x10c;" horiz-adv-x="1285" 
 />
    <glyph glyph-name="ccaron" unicode="&#x10d;" horiz-adv-x="930" 
 />
    <glyph glyph-name="Dslash" unicode="&#x110;" horiz-adv-x="1476" 
d="M1494 868q0 -223 -93 -418.5t-257 -310.5q-197 -139 -551 -139h-633q76 57 108.5 118.5t61.5 194.5l82 371h-150l35 168h152l57 258q27 121 27 178q0 53 -58 135h621q258 0 397 -92q201 -133 201 -463zM1080 913q0 340 -280 340q-35 0 -76 -10l-86 -391h280l-36 -168
h-281l-106 -477q71 -21 131 -21q188 0 321 212t133 515z" />
    <glyph glyph-name="dcroat" unicode="&#x111;" 
d="M882 1225q10 56 10 88q0 53 -53 108q123 0 301 4q90 5 149 37l-52 -237h141l-41 -159h-135l-163 -736q-14 -66 -14 -86q0 -64 61 -64q37 0 109 19l-145 -187q-84 -41 -179 -41q-213 0 -213 191q0 47 27 168l100 456q-41 39 -96 39q-90 0 -153 -96q-113 -170 -113 -385
q0 -174 147 -174q25 0 45 4l-106 -188q-64 -13 -125 -13q-164 0 -255 96.5t-91 270.5q0 307 225 516q164 152 416 152q76 0 151 -15l17 73h-360l41 159h354z" />
    <glyph glyph-name="quoteleft" unicode="&#x2018;" horiz-adv-x="626" 
d="M722 1425q-206 -73 -262 -213q174 -24 174 -190q0 -96 -59 -156.5t-156 -60.5q-82 0 -134 49t-52 127q0 139 100.5 274.5t249.5 196.5z" />
    <glyph glyph-name="quoteright" unicode="&#x2019;" horiz-adv-x="626" 
d="M683 1276q0 -141 -101 -276.5t-249 -194.5l-139 26q207 68 262 211q-174 27 -174 193q0 96 59.5 156.5t155.5 60.5q84 0 135 -49t51 -127z" />
    <glyph glyph-name="quotedblleft" unicode="&#x201c;" horiz-adv-x="1112" 
d="M1206 1425q-213 -73 -262 -213q174 -24 174 -190q0 -96 -59.5 -156.5t-155.5 -60.5q-82 0 -134.5 49t-52.5 127q0 139 100.5 274.5t250.5 196.5zM720 1425q-206 -73 -262 -213q174 -24 174 -190q0 -96 -59 -156.5t-156 -60.5q-82 0 -134 49t-52 127q0 139 100.5 274.5
t249.5 196.5z" />
    <glyph glyph-name="quotedblright" unicode="&#x201d;" horiz-adv-x="1112" 
d="M1169 1276q0 -139 -101.5 -276.5t-248.5 -194.5l-140 26q211 68 263 211q-175 27 -175 193q0 96 59.5 156.5t155.5 60.5q82 0 134.5 -49t52.5 -127zM683 1276q0 -141 -101 -276.5t-249 -194.5l-139 26q207 68 262 211q-174 27 -174 193q0 96 59.5 156.5t155.5 60.5
q84 0 135 -49t51 -127z" />
    <glyph glyph-name="ellipsis" unicode="&#x2026;" horiz-adv-x="1990" 
d="M1802 207q0 -101 -59.5 -164t-153.5 -63q-88 0 -140.5 53t-52.5 143q0 92 61.5 150.5t159.5 58.5q84 0 134.5 -48t50.5 -130zM1138 207q0 -101 -59.5 -164t-153.5 -63q-88 0 -140 53t-52 143q0 92 61 150.5t160 58.5q84 0 134 -48t50 -130zM475 207q0 -101 -59.5 -164
t-153.5 -63q-89 0 -141 53t-52 143q0 92 61.5 150.5t159.5 58.5q84 0 134.5 -48t50.5 -130z" />
  </font>
</defs>
</svg>
